<?xml version="1.0" encoding="utf-8"?>
<!-- Generator: Adobe Illustrator 23.0.3, SVG Export Plug-In . SVG Version: 6.00 Build 0)  -->
<svg version="1.1" id="图层_1" xmlns="http://www.w3.org/2000/svg" xmlns:xlink="http://www.w3.org/1999/xlink" x="0px" y="0px"
	 viewBox="0 0 612 792" style="enable-background:new 0 0 612 792;" xml:space="preserve">
<style type="text/css">
	.st0{fill:#FFFFFF;}
	.st1{fill:none;stroke:#262626;stroke-width:0.5;stroke-linecap:square;stroke-linejoin:round;stroke-miterlimit:10;}
	.st2{fill:#4C4948;}
	.st3{font-family:'Helvetica';}
	.st4{font-size:15px;}
	.st5{letter-spacing:54;}
	.st6{font-size:16.5px;}
	.st7{fill:none;stroke:#17499D;stroke-width:0.5;stroke-miterlimit:10;}
	.st8{fill:none;stroke:#E71F19;stroke-width:0.5;stroke-linejoin:round;stroke-miterlimit:10;}
	.st9{fill:#E71F19;}
	.st10{fill:none;stroke:#6AB82D;stroke-width:0.5;stroke-linejoin:bevel;stroke-miterlimit:10;stroke-dasharray:4,1.5,1,1.5;}
	.st11{fill:none;stroke:#6AB82D;stroke-width:0.5;stroke-miterlimit:10;}
	.st12{fill:none;stroke:#000000;stroke-width:0.5;stroke-linejoin:round;stroke-miterlimit:10;}
	.st13{font-size:13.5px;}
	.st14{fill:none;stroke:#262626;stroke-width:0.5;stroke-miterlimit:10;}
</style>
<g>
	<rect x="96" y="237" class="st0" width="420" height="315"/>
	<rect x="96" y="237" class="st0" width="420" height="315"/>
	<rect x="159.5" y="260.5" class="st0" width="316.5" height="245.5"/>
	<path class="st1" d="M159.5,506H476 M159.5,260.5H476 M159.5,506v-3.17 M222.8,506v-3.17 M286.1,506v-3.17 M349.4,506v-3.17
		 M412.7,506v-3.17 M476,506v-3.17 M159.5,260.5v3.17 M222.8,260.5v3.17 M286.1,260.5v3.17 M349.4,260.5v3.17 M412.7,260.5v3.17
		 M476,260.5v3.17"/>
	<text transform="matrix(1 0 0 1 155.25 526.5)" class="st2 st3 st4 st5">05</text>
	<text transform="matrix(1 0 0 1 277.6016 526.5)" class="st2 st3 st4">10</text>
	<text transform="matrix(1 0 0 1 340.8984 526.5)" class="st2 st3 st4">15</text>
	<text transform="matrix(1 0 0 1 404.2031 526.5)" class="st2 st3 st4">20</text>
	<text transform="matrix(1 0 0 1 467.5 526.5)" class="st2 st3 st4">25</text>
	<text transform="matrix(1 0 0 1 293 548)" class="st2 st3 st6">Time/s</text>
	<path class="st1" d="M159.5,506V260.5 M476,506V260.5 M159.5,506h3.16 M159.5,465.08h3.16 M159.5,424.17h3.16 M159.5,383.25h3.16
		 M159.5,342.33h3.16 M159.5,301.42h3.16 M159.5,260.5h3.16 M476,506h-3.17 M476,465.08h-3.17 M476,424.17h-3.17 M476,383.25h-3.17
		 M476,342.33h-3.17 M476,301.42h-3.17 M476,260.5h-3.17"/>
	<text transform="matrix(1 0 0 1 120 511.9922)" class="st2 st3 st4">-0.05</text>
	<text transform="matrix(1 0 0 1 146 471.086)" class="st2 st3 st4">0</text>
	<text transform="matrix(1 0 0 1 125 430.1719)" class="st2 st3 st4">0.05</text>
	<text transform="matrix(1 0 0 1 133.5 389.25)" class="st2 st3 st4">0.1</text>
	<text transform="matrix(1 0 0 1 125 348.3282)" class="st2 st3 st4">0.15</text>
	<text transform="matrix(1 0 0 1 133.5 307.4141)" class="st2 st3 st4">0.2</text>
	<text transform="matrix(1 0 0 1 125 266.5)" class="st2 st3 st4">0.25</text>
	<text transform="matrix(0 -1 1 0 113 433.2422)" class="st2 st3 st6">Control Value</text>
	<path class="st7" d="M159.5,257.5v6 M156.5,260.5h6 M157.38,258.38l4.24,4.24 M157.38,262.62l4.24-4.24 M165.83,259.15v6
		 M162.83,262.15h6 M163.71,260.03l4.24,4.24 M163.71,264.27l4.24-4.24 M172.16,263.49v6 M169.16,266.49h6 M170.04,264.37l4.24,4.24
		 M170.04,268.61l4.24-4.24 M178.49,269.61v6 M175.49,272.61h6 M176.37,270.49l4.24,4.24 M176.37,274.73l4.24-4.24 M184.82,280.75v6
		 M181.82,283.75h6 M182.7,281.63l4.24,4.24 M182.7,285.87l4.24-4.24 M191.15,307.76v6 M188.15,310.76h6 M189.03,308.64l4.24,4.24
		 M189.03,312.89l4.24-4.24 M197.48,345.19v6 M194.48,348.19h6 M195.36,346.07l4.24,4.24 M195.36,350.31l4.24-4.24 M203.81,386.17v6
		 M200.81,389.17h6 M201.69,387.05l4.24,4.24 M201.69,391.3l4.24-4.24 M210.14,423.88v6 M207.14,426.88h6 M208.02,424.76l4.24,4.24
		 M208.02,429l4.24-4.24 M216.47,451.47v6 M213.47,454.47h6 M214.35,452.34l4.24,4.24 M214.35,456.59l4.24-4.24 M222.8,462.08v6
		 M219.8,465.08h6 M220.68,462.96l4.24,4.24 M220.68,467.2l4.24-4.24 M229.13,462.08v6 M226.13,465.08h6 M227.01,462.96l4.24,4.24
		 M227.01,467.2l4.24-4.24 M235.46,462.08v6 M232.46,465.08h6 M233.34,462.96l4.24,4.24 M233.34,467.2l4.24-4.24 M241.79,462.08v6
		 M238.79,465.08h6 M239.67,462.96l4.24,4.24 M239.67,467.2l4.24-4.24 M248.12,462.08v6 M245.12,465.08h6 M246,462.96l4.24,4.24
		 M246,467.2l4.24-4.24 M254.45,462.08v6 M251.45,465.08h6 M252.33,462.96l4.24,4.24 M252.33,467.2l4.24-4.24 M260.78,462.08v6
		 M257.78,465.08h6 M258.66,462.96l4.24,4.24 M258.66,467.2l4.24-4.24 M267.11,462.08v6 M264.11,465.08h6 M264.99,462.96l4.24,4.24
		 M264.99,467.2l4.24-4.24 M273.44,462.08v6 M270.44,465.08h6 M271.32,462.96l4.24,4.24 M271.32,467.2l4.24-4.24 M279.77,462.08v6
		 M276.77,465.08h6 M277.65,462.96l4.24,4.24 M277.65,467.2l4.24-4.24 M286.1,462.08v6 M283.1,465.08h6 M283.98,462.96l4.24,4.24
		 M283.98,467.2l4.24-4.24 M292.43,462.08v6 M289.43,465.08h6 M290.31,462.96l4.24,4.24 M290.31,467.2l4.24-4.24 M298.76,462.08v6
		 M295.76,465.08h6 M296.64,462.96l4.24,4.24 M296.64,467.2l4.24-4.24 M305.09,462.08v6 M302.09,465.08h6 M302.97,462.96l4.24,4.24
		 M302.97,467.2l4.24-4.24 M311.42,462.08v6 M308.42,465.08h6 M309.3,462.96l4.24,4.24 M309.3,467.2l4.24-4.24 M317.75,462.08v6
		 M314.75,465.08h6 M315.63,462.96l4.24,4.24 M315.63,467.2l4.24-4.24 M324.08,462.08v6 M321.08,465.08h6 M321.96,462.96l4.24,4.24
		 M321.96,467.2l4.24-4.24 M330.41,462.08v6 M327.41,465.08h6 M328.29,462.96l4.24,4.24 M328.29,467.2l4.24-4.24 M336.74,462.08v6
		 M333.74,465.08h6 M334.62,462.96l4.24,4.24 M334.62,467.2l4.24-4.24 M343.07,462.08v6 M340.07,465.08h6 M340.95,462.96l4.24,4.24
		 M340.95,467.2l4.24-4.24 M349.4,462.08v6 M346.4,465.08h6 M347.28,462.96l4.24,4.24 M347.28,467.2l4.24-4.24 M355.73,462.08v6
		 M352.73,465.08h6 M353.61,462.96l4.24,4.24 M353.61,467.2l4.24-4.24 M362.06,462.08v6 M359.06,465.08h6 M359.94,462.96l4.24,4.24
		 M359.94,467.2l4.24-4.24 M368.39,462.08v6 M365.39,465.08h6 M366.27,462.96l4.24,4.24 M366.27,467.2l4.24-4.24 M374.72,462.08v6
		 M371.72,465.08h6 M372.6,462.96l4.24,4.24 M372.6,467.2l4.24-4.24 M381.05,462.08v6 M378.05,465.08h6 M378.93,462.96l4.24,4.24
		 M378.93,467.2l4.24-4.24 M387.38,462.08v6 M384.38,465.08h6 M385.26,462.96l4.24,4.24 M385.26,467.2l4.24-4.24 M393.71,462.08v6
		 M390.71,465.08h6 M391.59,462.96l4.24,4.24 M391.59,467.2l4.24-4.24 M400.04,462.08v6 M397.04,465.08h6 M397.92,462.96l4.24,4.24
		 M397.92,467.2l4.24-4.24 M406.37,462.08v6 M403.37,465.08h6 M404.25,462.96l4.24,4.24 M404.25,467.2l4.24-4.24 M412.7,462.08v6
		 M409.7,465.08h6 M410.58,462.96l4.24,4.24 M410.58,467.2l4.24-4.24 M419.03,462.08v6 M416.03,465.08h6 M416.91,462.96l4.24,4.24
		 M416.91,467.2l4.24-4.24 M425.36,462.08v6 M422.36,465.08h6 M423.24,462.96l4.24,4.24 M423.24,467.2l4.24-4.24 M431.69,462.08v6
		 M428.69,465.08h6 M429.57,462.96l4.24,4.24 M429.57,467.2l4.24-4.24 M438.02,462.08v6 M435.02,465.08h6 M435.9,462.96l4.24,4.24
		 M435.9,467.2l4.24-4.24 M444.35,462.08v6 M441.35,465.08h6 M442.23,462.96l4.24,4.24 M442.23,467.2l4.24-4.24 M450.68,462.08v6
		 M447.68,465.08h6 M448.56,462.96l4.24,4.24 M448.56,467.2l4.24-4.24 M457.01,462.08v6 M454.01,465.08h6 M454.89,462.96l4.24,4.24
		 M454.89,467.2l4.24-4.24 M463.34,462.08v6 M460.34,465.08h6 M461.22,462.96l4.24,4.24 M461.22,467.2l4.24-4.24"/>
	<polyline class="st8" points="159.5,465.08 165.83,465.08 172.16,465.08 178.49,465.08 184.82,465.08 191.15,465.08 197.48,465.08 
		203.81,465.08 210.14,465.08 216.47,465.08 222.8,465.08 229.13,465.08 235.46,465.08 241.79,465.08 248.12,465.08 254.45,465.08 
		260.78,465.08 267.11,465.08 273.44,465.08 279.77,465.08 286.1,465.08 292.43,465.08 298.76,465.08 305.09,465.08 311.42,465.08 
		317.75,465.08 324.08,465.08 330.41,465.08 336.74,465.08 343.07,465.08 349.4,465.08 355.73,465.08 362.06,465.08 368.39,465.08 
		374.72,465.08 381.05,465.08 387.38,465.08 393.71,465.08 400.04,465.08 406.37,465.08 412.7,465.08 419.03,465.08 425.36,465.08 
		431.69,465.08 438.02,465.08 444.35,465.08 450.68,465.08 457.01,465.08 463.34,465.08 	"/>
	<path class="st9" d="M159.5,462.33c1.52,0,2.75,1.23,2.75,2.75l0,0c0,1.52-1.23,2.75-2.75,2.75s-2.75-1.23-2.75-2.75
		S157.98,462.33,159.5,462.33L159.5,462.33z M159.5,461.83c-1.79,0-3.25,1.45-3.25,3.25c0,1.79,1.46,3.25,3.25,3.25
		s3.25-1.45,3.25-3.25l0,0C162.75,463.29,161.29,461.83,159.5,461.83L159.5,461.83z"/>
	<path class="st9" d="M165.83,462.33c1.52,0,2.75,1.23,2.75,2.75l0,0c0,1.52-1.23,2.75-2.75,2.75s-2.75-1.23-2.75-2.75
		S164.31,462.33,165.83,462.33L165.83,462.33z M165.83,461.83c-1.8,0-3.25,1.45-3.25,3.25c0,1.79,1.45,3.25,3.25,3.25
		c1.79,0,3.25-1.45,3.25-3.25l0,0C169.08,463.29,167.62,461.83,165.83,461.83L165.83,461.83z"/>
	<path class="st9" d="M172.16,462.33c1.52,0,2.75,1.23,2.75,2.75l0,0c0,1.52-1.23,2.75-2.75,2.75s-2.75-1.23-2.75-2.75
		S170.64,462.33,172.16,462.33L172.16,462.33z M172.16,461.83c-1.8,0-3.25,1.45-3.25,3.25c0,1.79,1.46,3.25,3.25,3.25
		c1.79,0,3.25-1.45,3.25-3.25l0,0C175.41,463.29,173.96,461.83,172.16,461.83L172.16,461.83z"/>
	<path class="st9" d="M178.49,462.33c1.52,0,2.75,1.23,2.75,2.75l0,0c0,1.52-1.23,2.75-2.75,2.75s-2.75-1.23-2.75-2.75
		S176.97,462.33,178.49,462.33L178.49,462.33z M178.49,461.83c-1.8,0-3.25,1.45-3.25,3.25c0,1.79,1.46,3.25,3.25,3.25
		c1.79,0,3.25-1.45,3.25-3.25l0,0C181.74,463.29,180.28,461.83,178.49,461.83L178.49,461.83z"/>
	<path class="st9" d="M184.82,462.33c1.52,0,2.75,1.23,2.75,2.75l0,0c0,1.52-1.23,2.75-2.75,2.75s-2.75-1.23-2.75-2.75
		S183.3,462.33,184.82,462.33L184.82,462.33z M184.82,461.83c-1.8,0-3.25,1.45-3.25,3.25c0,1.79,1.46,3.25,3.25,3.25
		c1.79,0,3.25-1.45,3.25-3.25l0,0C188.07,463.29,186.61,461.83,184.82,461.83L184.82,461.83z"/>
	<path class="st9" d="M191.15,462.33c1.52,0,2.75,1.23,2.75,2.75l0,0c0,1.52-1.23,2.75-2.75,2.75c-1.52,0-2.75-1.23-2.75-2.75
		S189.63,462.33,191.15,462.33L191.15,462.33z M191.15,461.83c-1.8,0-3.25,1.45-3.25,3.25c0,1.79,1.46,3.25,3.25,3.25
		c1.79,0,3.25-1.45,3.25-3.25l0,0C194.4,463.29,192.94,461.83,191.15,461.83L191.15,461.83z"/>
	<path class="st9" d="M197.48,462.33c1.52,0,2.75,1.23,2.75,2.75l0,0c0,1.52-1.23,2.75-2.75,2.75c-1.52,0-2.75-1.23-2.75-2.75
		S195.96,462.33,197.48,462.33L197.48,462.33z M197.48,461.83c-1.79,0-3.25,1.45-3.25,3.25c0,1.79,1.46,3.25,3.25,3.25
		c1.8,0,3.25-1.45,3.25-3.25l0,0C200.73,463.29,199.28,461.83,197.48,461.83L197.48,461.83z"/>
	<path class="st9" d="M203.81,462.33c1.52,0,2.75,1.23,2.75,2.75l0,0c0,1.52-1.23,2.75-2.75,2.75s-2.75-1.23-2.75-2.75
		S202.29,462.33,203.81,462.33L203.81,462.33z M203.81,461.83c-1.79,0-3.25,1.45-3.25,3.25c0,1.79,1.46,3.25,3.25,3.25
		c1.8,0,3.25-1.45,3.25-3.25l0,0C207.06,463.29,205.6,461.83,203.81,461.83L203.81,461.83z"/>
	<path class="st9" d="M210.14,462.33c1.52,0,2.75,1.23,2.75,2.75l0,0c0,1.52-1.23,2.75-2.75,2.75s-2.75-1.23-2.75-2.75
		S208.62,462.33,210.14,462.33L210.14,462.33z M210.14,461.83c-1.79,0-3.25,1.45-3.25,3.25c0,1.79,1.46,3.25,3.25,3.25
		c1.8,0,3.25-1.45,3.25-3.25l0,0C213.39,463.29,211.93,461.83,210.14,461.83L210.14,461.83z"/>
	<path class="st9" d="M216.47,462.33c1.52,0,2.75,1.23,2.75,2.75l0,0c0,1.52-1.23,2.75-2.75,2.75s-2.75-1.23-2.75-2.75
		S214.95,462.33,216.47,462.33L216.47,462.33z M216.47,461.83c-1.79,0-3.25,1.45-3.25,3.25c0,1.79,1.46,3.25,3.25,3.25
		c1.8,0,3.25-1.45,3.25-3.25l0,0C219.72,463.29,218.26,461.83,216.47,461.83L216.47,461.83z"/>
	<path class="st9" d="M222.8,462.33c1.52,0,2.75,1.23,2.75,2.75l0,0c0,1.52-1.23,2.75-2.75,2.75s-2.75-1.23-2.75-2.75
		S221.28,462.33,222.8,462.33L222.8,462.33z M222.8,461.83c-1.79,0-3.25,1.45-3.25,3.25c0,1.79,1.46,3.25,3.25,3.25
		s3.25-1.45,3.25-3.25l0,0C226.05,463.29,224.59,461.83,222.8,461.83L222.8,461.83z"/>
	<path class="st9" d="M229.13,462.33c1.52,0,2.75,1.23,2.75,2.75l0,0c0,1.52-1.23,2.75-2.75,2.75s-2.75-1.23-2.75-2.75
		S227.61,462.33,229.13,462.33L229.13,462.33z M229.13,461.83c-1.8,0-3.25,1.45-3.25,3.25c0,1.79,1.45,3.25,3.25,3.25
		c1.79,0,3.25-1.45,3.25-3.25l0,0C232.38,463.29,230.92,461.83,229.13,461.83L229.13,461.83z"/>
	<path class="st9" d="M235.46,462.33c1.52,0,2.75,1.23,2.75,2.75l0,0c0,1.52-1.23,2.75-2.75,2.75s-2.75-1.23-2.75-2.75
		S233.94,462.33,235.46,462.33L235.46,462.33z M235.46,461.83c-1.8,0-3.25,1.45-3.25,3.25c0,1.79,1.46,3.25,3.25,3.25
		c1.79,0,3.25-1.45,3.25-3.25l0,0C238.71,463.29,237.25,461.83,235.46,461.83L235.46,461.83z"/>
	<path class="st9" d="M241.79,462.33c1.52,0,2.75,1.23,2.75,2.75l0,0c0,1.52-1.23,2.75-2.75,2.75s-2.75-1.23-2.75-2.75
		S240.27,462.33,241.79,462.33L241.79,462.33z M241.79,461.83c-1.8,0-3.25,1.45-3.25,3.25c0,1.79,1.46,3.25,3.25,3.25
		c1.79,0,3.25-1.45,3.25-3.25l0,0C245.04,463.29,243.58,461.83,241.79,461.83L241.79,461.83z"/>
	<path class="st9" d="M248.12,462.33c1.52,0,2.75,1.23,2.75,2.75l0,0c0,1.52-1.23,2.75-2.75,2.75c-1.52,0-2.75-1.23-2.75-2.75
		S246.6,462.33,248.12,462.33L248.12,462.33z M248.12,461.83c-1.8,0-3.25,1.45-3.25,3.25c0,1.79,1.46,3.25,3.25,3.25
		c1.79,0,3.25-1.45,3.25-3.25l0,0C251.37,463.29,249.91,461.83,248.12,461.83L248.12,461.83z"/>
	<path class="st9" d="M254.45,462.33c1.52,0,2.75,1.23,2.75,2.75l0,0c0,1.52-1.23,2.75-2.75,2.75c-1.52,0-2.75-1.23-2.75-2.75
		S252.93,462.33,254.45,462.33L254.45,462.33z M254.45,461.83c-1.79,0-3.25,1.45-3.25,3.25c0,1.79,1.46,3.25,3.25,3.25
		c1.8,0,3.25-1.45,3.25-3.25l0,0C257.7,463.29,256.24,461.83,254.45,461.83L254.45,461.83z"/>
	<path class="st9" d="M260.78,462.33c1.52,0,2.75,1.23,2.75,2.75l0,0c0,1.52-1.23,2.75-2.75,2.75c-1.52,0-2.75-1.23-2.75-2.75
		S259.26,462.33,260.78,462.33L260.78,462.33z M260.78,461.83c-1.79,0-3.25,1.45-3.25,3.25c0,1.79,1.46,3.25,3.25,3.25
		c1.8,0,3.25-1.45,3.25-3.25l0,0C264.03,463.29,262.58,461.83,260.78,461.83L260.78,461.83z"/>
	<path class="st9" d="M267.11,462.33c1.52,0,2.75,1.23,2.75,2.75l0,0c0,1.52-1.23,2.75-2.75,2.75s-2.75-1.23-2.75-2.75
		S265.59,462.33,267.11,462.33L267.11,462.33z M267.11,461.83c-1.79,0-3.25,1.45-3.25,3.25c0,1.79,1.46,3.25,3.25,3.25
		c1.8,0,3.25-1.45,3.25-3.25l0,0C270.36,463.29,268.9,461.83,267.11,461.83L267.11,461.83z"/>
	<path class="st9" d="M273.44,462.33c1.52,0,2.75,1.23,2.75,2.75l0,0c0,1.52-1.23,2.75-2.75,2.75c-1.52,0-2.75-1.23-2.75-2.75
		S271.92,462.33,273.44,462.33L273.44,462.33z M273.44,461.83c-1.8,0-3.25,1.45-3.25,3.25c0,1.79,1.45,3.25,3.25,3.25
		c1.79,0,3.25-1.45,3.25-3.25l0,0C276.69,463.29,275.23,461.83,273.44,461.83L273.44,461.83z"/>
	<path class="st9" d="M279.77,462.33c1.52,0,2.75,1.23,2.75,2.75l0,0c0,1.52-1.23,2.75-2.75,2.75s-2.75-1.23-2.75-2.75
		S278.25,462.33,279.77,462.33L279.77,462.33z M279.77,461.83c-1.8,0-3.25,1.45-3.25,3.25c0,1.79,1.45,3.25,3.25,3.25
		s3.25-1.45,3.25-3.25l0,0C283.02,463.29,281.57,461.83,279.77,461.83L279.77,461.83z"/>
	<path class="st9" d="M286.1,462.33c1.52,0,2.75,1.23,2.75,2.75l0,0c0,1.52-1.23,2.75-2.75,2.75c-1.52,0-2.75-1.23-2.75-2.75
		S284.58,462.33,286.1,462.33L286.1,462.33z M286.1,461.83c-1.79,0-3.25,1.45-3.25,3.25c0,1.79,1.46,3.25,3.25,3.25
		c1.8,0,3.25-1.45,3.25-3.25l0,0C289.35,463.29,287.89,461.83,286.1,461.83L286.1,461.83z"/>
	<path class="st9" d="M292.43,462.33c1.52,0,2.75,1.23,2.75,2.75l0,0c0,1.52-1.23,2.75-2.75,2.75c-1.52,0-2.75-1.23-2.75-2.75
		S290.91,462.33,292.43,462.33L292.43,462.33z M292.43,461.83c-1.8,0-3.25,1.45-3.25,3.25c0,1.79,1.45,3.25,3.25,3.25
		c1.79,0,3.25-1.45,3.25-3.25l0,0C295.68,463.29,294.22,461.83,292.43,461.83L292.43,461.83z"/>
	<path class="st9" d="M298.76,462.33c1.52,0,2.75,1.23,2.75,2.75l0,0c0,1.52-1.23,2.75-2.75,2.75s-2.75-1.23-2.75-2.75
		S297.24,462.33,298.76,462.33L298.76,462.33z M298.76,461.83c-1.8,0-3.25,1.45-3.25,3.25c0,1.79,1.45,3.25,3.25,3.25
		s3.25-1.45,3.25-3.25l0,0C302.01,463.29,300.55,461.83,298.76,461.83L298.76,461.83z"/>
	<path class="st9" d="M305.09,462.33c1.52,0,2.75,1.23,2.75,2.75l0,0c0,1.52-1.23,2.75-2.75,2.75s-2.75-1.23-2.75-2.75
		S303.57,462.33,305.09,462.33L305.09,462.33z M305.09,461.83c-1.8,0-3.25,1.45-3.25,3.25c0,1.79,1.45,3.25,3.25,3.25
		c1.79,0,3.25-1.45,3.25-3.25l0,0C308.34,463.29,306.88,461.83,305.09,461.83L305.09,461.83z"/>
	<path class="st9" d="M311.42,462.33c1.52,0,2.75,1.23,2.75,2.75l0,0c0,1.52-1.23,2.75-2.75,2.75c-1.52,0-2.75-1.23-2.75-2.75
		S309.9,462.33,311.42,462.33L311.42,462.33z M311.42,461.83c-1.79,0-3.25,1.45-3.25,3.25c0,1.79,1.46,3.25,3.25,3.25
		c1.8,0,3.25-1.45,3.25-3.25l0,0C314.67,463.29,313.21,461.83,311.42,461.83L311.42,461.83z"/>
	<path class="st9" d="M317.75,462.33c1.52,0,2.75,1.23,2.75,2.75l0,0c0,1.52-1.23,2.75-2.75,2.75c-1.52,0-2.75-1.23-2.75-2.75
		S316.23,462.33,317.75,462.33L317.75,462.33z M317.75,461.83c-1.8,0-3.25,1.45-3.25,3.25c0,1.79,1.45,3.25,3.25,3.25
		c1.79,0,3.25-1.45,3.25-3.25l0,0C321,463.29,319.54,461.83,317.75,461.83L317.75,461.83z"/>
	<path class="st9" d="M324.08,462.33c1.52,0,2.75,1.23,2.75,2.75l0,0c0,1.52-1.23,2.75-2.75,2.75s-2.75-1.23-2.75-2.75
		S322.56,462.33,324.08,462.33L324.08,462.33z M324.08,461.83c-1.79,0-3.25,1.45-3.25,3.25c0,1.79,1.46,3.25,3.25,3.25
		c1.8,0,3.25-1.45,3.25-3.25l0,0C327.33,463.29,325.88,461.83,324.08,461.83L324.08,461.83z"/>
	<path class="st9" d="M330.41,462.33c1.52,0,2.75,1.23,2.75,2.75l0,0c0,1.52-1.23,2.75-2.75,2.75c-1.52,0-2.75-1.23-2.75-2.75
		S328.89,462.33,330.41,462.33L330.41,462.33z M330.41,461.83c-1.8,0-3.25,1.45-3.25,3.25c0,1.79,1.45,3.25,3.25,3.25
		c1.79,0,3.25-1.45,3.25-3.25l0,0C333.66,463.29,332.2,461.83,330.41,461.83L330.41,461.83z"/>
	<path class="st9" d="M336.74,462.33c1.52,0,2.75,1.23,2.75,2.75l0,0c0,1.52-1.23,2.75-2.75,2.75s-2.75-1.23-2.75-2.75
		S335.22,462.33,336.74,462.33L336.74,462.33z M336.74,461.83c-1.79,0-3.25,1.45-3.25,3.25c0,1.79,1.46,3.25,3.25,3.25
		s3.25-1.45,3.25-3.25l0,0C339.99,463.29,338.53,461.83,336.74,461.83L336.74,461.83z"/>
	<path class="st9" d="M343.07,462.33c1.52,0,2.75,1.23,2.75,2.75l0,0c0,1.52-1.23,2.75-2.75,2.75s-2.75-1.23-2.75-2.75
		S341.55,462.33,343.07,462.33L343.07,462.33z M343.07,461.83c-1.8,0-3.25,1.45-3.25,3.25c0,1.79,1.45,3.25,3.25,3.25
		c1.79,0,3.25-1.45,3.25-3.25l0,0C346.32,463.29,344.86,461.83,343.07,461.83L343.07,461.83z"/>
	<path class="st9" d="M349.4,462.33c1.52,0,2.75,1.23,2.75,2.75l0,0c0,1.52-1.23,2.75-2.75,2.75c-1.52,0-2.75-1.23-2.75-2.75
		S347.88,462.33,349.4,462.33L349.4,462.33z M349.4,461.83c-1.79,0-3.25,1.45-3.25,3.25c0,1.79,1.46,3.25,3.25,3.25
		c1.8,0,3.25-1.45,3.25-3.25l0,0C352.65,463.29,351.19,461.83,349.4,461.83L349.4,461.83z"/>
	<path class="st9" d="M355.73,462.33c1.52,0,2.75,1.23,2.75,2.75l0,0c0,1.52-1.23,2.75-2.75,2.75s-2.75-1.23-2.75-2.75
		S354.21,462.33,355.73,462.33L355.73,462.33z M355.73,461.83c-1.8,0-3.25,1.45-3.25,3.25c0,1.79,1.45,3.25,3.25,3.25
		c1.79,0,3.25-1.45,3.25-3.25l0,0C358.98,463.29,357.52,461.83,355.73,461.83L355.73,461.83z"/>
	<path class="st9" d="M362.06,462.33c1.52,0,2.75,1.23,2.75,2.75l0,0c0,1.52-1.23,2.75-2.75,2.75c-1.52,0-2.75-1.23-2.75-2.75
		S360.54,462.33,362.06,462.33L362.06,462.33z M362.06,461.83c-1.79,0-3.25,1.45-3.25,3.25c0,1.79,1.46,3.25,3.25,3.25
		c1.8,0,3.25-1.45,3.25-3.25l0,0C365.31,463.29,363.85,461.83,362.06,461.83L362.06,461.83z"/>
	<path class="st9" d="M368.39,462.33c1.52,0,2.75,1.23,2.75,2.75l0,0c0,1.52-1.23,2.75-2.75,2.75c-1.52,0-2.75-1.23-2.75-2.75
		S366.87,462.33,368.39,462.33L368.39,462.33z M368.39,461.83c-1.8,0-3.25,1.45-3.25,3.25c0,1.79,1.45,3.25,3.25,3.25
		c1.79,0,3.25-1.45,3.25-3.25l0,0C371.64,463.29,370.18,461.83,368.39,461.83L368.39,461.83z"/>
	<path class="st9" d="M374.72,462.33c1.52,0,2.75,1.23,2.75,2.75l0,0c0,1.52-1.23,2.75-2.75,2.75c-1.52,0-2.75-1.23-2.75-2.75
		S373.2,462.33,374.72,462.33L374.72,462.33z M374.72,461.83c-1.79,0-3.25,1.45-3.25,3.25c0,1.79,1.46,3.25,3.25,3.25
		c1.8,0,3.25-1.45,3.25-3.25l0,0C377.97,463.29,376.51,461.83,374.72,461.83L374.72,461.83z"/>
	<path class="st9" d="M381.05,462.33c1.52,0,2.75,1.23,2.75,2.75l0,0c0,1.52-1.23,2.75-2.75,2.75c-1.52,0-2.75-1.23-2.75-2.75
		S379.53,462.33,381.05,462.33L381.05,462.33z M381.05,461.83c-1.8,0-3.25,1.45-3.25,3.25c0,1.79,1.45,3.25,3.25,3.25
		c1.79,0,3.25-1.45,3.25-3.25l0,0C384.3,463.29,382.84,461.83,381.05,461.83L381.05,461.83z"/>
	<path class="st9" d="M387.38,462.33c1.52,0,2.75,1.23,2.75,2.75l0,0c0,1.52-1.23,2.75-2.75,2.75c-1.52,0-2.75-1.23-2.75-2.75
		S385.86,462.33,387.38,462.33L387.38,462.33z M387.38,461.83c-1.79,0-3.25,1.45-3.25,3.25c0,1.79,1.46,3.25,3.25,3.25
		c1.8,0,3.25-1.45,3.25-3.25l0,0C390.63,463.29,389.17,461.83,387.38,461.83L387.38,461.83z"/>
	<path class="st9" d="M393.71,462.33c1.52,0,2.75,1.23,2.75,2.75l0,0c0,1.52-1.23,2.75-2.75,2.75c-1.52,0-2.75-1.23-2.75-2.75
		S392.19,462.33,393.71,462.33L393.71,462.33z M393.71,461.83c-1.8,0-3.25,1.45-3.25,3.25c0,1.79,1.45,3.25,3.25,3.25
		c1.79,0,3.25-1.45,3.25-3.25l0,0C396.96,463.29,395.5,461.83,393.71,461.83L393.71,461.83z"/>
	<path class="st9" d="M400.04,462.33c1.52,0,2.75,1.23,2.75,2.75l0,0c0,1.52-1.23,2.75-2.75,2.75s-2.75-1.23-2.75-2.75
		S398.52,462.33,400.04,462.33L400.04,462.33z M400.04,461.83c-1.8,0-3.25,1.45-3.25,3.25c0,1.79,1.45,3.25,3.25,3.25
		s3.25-1.45,3.25-3.25l0,0C403.29,463.29,401.84,461.83,400.04,461.83L400.04,461.83z"/>
	<path class="st9" d="M406.37,462.33c1.52,0,2.75,1.23,2.75,2.75l0,0c0,1.52-1.23,2.75-2.75,2.75c-1.52,0-2.75-1.23-2.75-2.75
		S404.85,462.33,406.37,462.33L406.37,462.33z M406.37,461.83c-1.8,0-3.25,1.45-3.25,3.25c0,1.79,1.46,3.25,3.25,3.25
		c1.79,0,3.25-1.45,3.25-3.25l0,0C409.62,463.29,408.16,461.83,406.37,461.83L406.37,461.83z"/>
	<path class="st9" d="M412.7,462.33c1.52,0,2.75,1.23,2.75,2.75l0,0c0,1.52-1.23,2.75-2.75,2.75c-1.52,0-2.75-1.23-2.75-2.75
		S411.18,462.33,412.7,462.33L412.7,462.33z M412.7,461.83c-1.8,0-3.25,1.45-3.25,3.25c0,1.79,1.45,3.25,3.25,3.25
		s3.25-1.45,3.25-3.25l0,0C415.95,463.29,414.5,461.83,412.7,461.83L412.7,461.83z"/>
	<path class="st9" d="M419.03,462.33c1.52,0,2.75,1.23,2.75,2.75l0,0c0,1.52-1.23,2.75-2.75,2.75c-1.52,0-2.75-1.23-2.75-2.75
		S417.51,462.33,419.03,462.33L419.03,462.33z M419.03,461.83c-1.79,0-3.25,1.45-3.25,3.25c0,1.79,1.46,3.25,3.25,3.25
		c1.8,0,3.25-1.45,3.25-3.25l0,0C422.28,463.29,420.82,461.83,419.03,461.83L419.03,461.83z"/>
	<path class="st9" d="M425.36,462.33c1.52,0,2.75,1.23,2.75,2.75l0,0c0,1.52-1.23,2.75-2.75,2.75c-1.52,0-2.75-1.23-2.75-2.75
		S423.84,462.33,425.36,462.33L425.36,462.33z M425.36,461.83c-1.8,0-3.25,1.45-3.25,3.25c0,1.79,1.45,3.25,3.25,3.25
		c1.79,0,3.25-1.45,3.25-3.25l0,0C428.61,463.29,427.15,461.83,425.36,461.83L425.36,461.83z"/>
	<path class="st9" d="M431.69,462.33c1.52,0,2.75,1.23,2.75,2.75l0,0c0,1.52-1.23,2.75-2.75,2.75c-1.52,0-2.75-1.23-2.75-2.75
		S430.17,462.33,431.69,462.33L431.69,462.33z M431.69,461.83c-1.79,0-3.25,1.45-3.25,3.25c0,1.79,1.46,3.25,3.25,3.25
		c1.8,0,3.25-1.45,3.25-3.25l0,0C434.94,463.29,433.48,461.83,431.69,461.83L431.69,461.83z"/>
	<path class="st9" d="M438.02,462.33c1.52,0,2.75,1.23,2.75,2.75l0,0c0,1.52-1.23,2.75-2.75,2.75c-1.52,0-2.75-1.23-2.75-2.75
		S436.5,462.33,438.02,462.33L438.02,462.33z M438.02,461.83c-1.8,0-3.25,1.45-3.25,3.25c0,1.79,1.45,3.25,3.25,3.25
		s3.25-1.45,3.25-3.25l0,0C441.27,463.29,439.82,461.83,438.02,461.83L438.02,461.83z"/>
	<path class="st9" d="M444.35,462.33c1.52,0,2.75,1.23,2.75,2.75l0,0c0,1.52-1.23,2.75-2.75,2.75c-1.52,0-2.75-1.23-2.75-2.75
		S442.83,462.33,444.35,462.33L444.35,462.33z M444.35,461.83c-1.79,0-3.25,1.45-3.25,3.25c0,1.79,1.46,3.25,3.25,3.25
		c1.8,0,3.25-1.45,3.25-3.25l0,0C447.6,463.29,446.14,461.83,444.35,461.83L444.35,461.83z"/>
	<path class="st9" d="M450.68,462.33c1.52,0,2.75,1.23,2.75,2.75l0,0c0,1.52-1.23,2.75-2.75,2.75c-1.52,0-2.75-1.23-2.75-2.75
		S449.16,462.33,450.68,462.33L450.68,462.33z M450.68,461.83c-1.8,0-3.25,1.45-3.25,3.25c0,1.79,1.45,3.25,3.25,3.25
		c1.79,0,3.25-1.45,3.25-3.25l0,0C453.93,463.29,452.47,461.83,450.68,461.83L450.68,461.83z"/>
	<path class="st9" d="M457.01,462.33c1.52,0,2.75,1.23,2.75,2.75l0,0c0,1.52-1.23,2.75-2.75,2.75c-1.52,0-2.75-1.23-2.75-2.75
		S455.49,462.33,457.01,462.33L457.01,462.33z M457.01,461.83c-1.79,0-3.25,1.45-3.25,3.25c0,1.79,1.46,3.25,3.25,3.25
		c1.8,0,3.25-1.45,3.25-3.25l0,0C460.26,463.29,458.81,461.83,457.01,461.83L457.01,461.83z"/>
	<path class="st9" d="M463.34,462.33c1.52,0,2.75,1.23,2.75,2.75l0,0c0,1.52-1.23,2.75-2.75,2.75c-1.52,0-2.75-1.23-2.75-2.75
		S461.82,462.33,463.34,462.33L463.34,462.33z M463.34,461.83c-1.79,0-3.25,1.45-3.25,3.25c0,1.79,1.45,3.25,3.25,3.25
		c1.8,0,3.25-1.45,3.25-3.25l0,0C466.59,463.29,465.13,461.83,463.34,461.83L463.34,461.83z"/>
	<polyline class="st10" points="159.5,465.08 165.83,465.08 172.16,465.08 178.49,465.08 184.82,465.08 191.15,465.08 
		197.48,465.08 203.81,465.08 210.14,465.08 216.47,465.08 222.8,465.08 229.13,465.08 235.46,465.08 241.79,465.08 248.12,465.08 
		254.45,465.08 260.78,465.08 267.11,465.08 273.44,465.08 279.77,465.08 286.1,465.08 292.43,465.08 298.76,465.08 305.09,465.08 
		311.42,465.08 317.75,465.08 324.08,465.08 330.41,465.08 336.74,465.08 343.07,465.08 349.4,465.08 355.73,465.08 362.06,465.08 
		368.39,465.08 374.72,465.08 381.05,465.08 387.38,465.08 393.71,465.08 400.04,465.08 406.37,465.08 412.7,465.08 419.03,465.08 
		425.36,465.08 431.69,465.08 438.02,465.08 444.35,465.08 450.68,465.08 457.01,465.08 463.34,465.08 	"/>
	<path class="st11" d="M159.5,462.08v6 M156.5,465.08h6 M165.83,462.08v6 M162.83,465.08h6 M172.16,462.08v6 M169.16,465.08h6
		 M178.49,462.08v6 M175.49,465.08h6 M184.82,462.08v6 M181.82,465.08h6 M191.15,462.08v6 M188.15,465.08h6 M197.48,462.08v6
		 M194.48,465.08h6 M203.81,462.08v6 M200.81,465.08h6 M210.14,462.08v6 M207.14,465.08h6 M216.47,462.08v6 M213.47,465.08h6
		 M222.8,462.08v6 M219.8,465.08h6 M229.13,462.08v6 M226.13,465.08h6 M235.46,462.08v6 M232.46,465.08h6 M241.79,462.08v6
		 M238.79,465.08h6 M248.12,462.08v6 M245.12,465.08h6 M254.45,462.08v6 M251.45,465.08h6 M260.78,462.08v6 M257.78,465.08h6
		 M267.11,462.08v6 M264.11,465.08h6 M273.44,462.08v6 M270.44,465.08h6 M279.77,462.08v6 M276.77,465.08h6 M286.1,462.08v6
		 M283.1,465.08h6 M292.43,462.08v6 M289.43,465.08h6 M298.76,462.08v6 M295.76,465.08h6 M305.09,462.08v6 M302.09,465.08h6
		 M311.42,462.08v6 M308.42,465.08h6 M317.75,462.08v6 M314.75,465.08h6 M324.08,462.08v6 M321.08,465.08h6 M330.41,462.08v6
		 M327.41,465.08h6 M336.74,462.08v6 M333.74,465.08h6 M343.07,462.08v6 M340.07,465.08h6 M349.4,462.08v6 M346.4,465.08h6
		 M355.73,462.08v6 M352.73,465.08h6 M362.06,462.08v6 M359.06,465.08h6 M368.39,462.08v6 M365.39,465.08h6 M374.72,462.08v6
		 M371.72,465.08h6 M381.05,462.08v6 M378.05,465.08h6 M387.38,462.08v6 M384.38,465.08h6 M393.71,462.08v6 M390.71,465.08h6
		 M400.04,462.08v6 M397.04,465.08h6 M406.37,462.08v6 M403.37,465.08h6 M412.7,462.08v6 M409.7,465.08h6 M419.03,462.08v6
		 M416.03,465.08h6 M425.36,462.08v6 M422.36,465.08h6 M431.69,462.08v6 M428.69,465.08h6 M438.02,462.08v6 M435.02,465.08h6
		 M444.35,462.08v6 M441.35,465.08h6 M450.68,462.08v6 M447.68,465.08h6 M457.01,462.08v6 M454.01,465.08h6 M463.34,462.08v6
		 M460.34,465.08h6"/>
	<polyline class="st12" points="159.5,260.5 165.83,262.15 172.16,266.49 178.49,272.61 184.82,283.75 191.15,310.76 197.48,348.19 
		203.81,389.17 210.14,426.88 216.47,454.47 222.8,465.08 229.13,465.08 235.46,465.08 241.79,465.08 248.12,465.08 254.45,465.08 
		260.78,465.08 267.11,465.08 273.44,465.08 279.77,465.08 286.1,465.08 292.43,465.08 298.76,465.08 305.09,465.08 311.42,465.08 
		317.75,465.08 324.08,465.08 330.41,465.08 336.74,465.08 343.07,465.08 349.4,465.08 355.73,465.08 362.06,465.08 368.39,465.08 
		374.72,465.08 381.05,465.08 387.38,465.08 393.71,465.08 400.04,465.08 406.37,465.08 412.7,465.08 419.03,465.08 425.36,465.08 
		431.69,465.08 438.02,465.08 444.35,465.08 450.68,465.08 457.01,465.08 463.34,465.08 	"/>
	<rect x="413.5" y="268.5" class="st0" width="54.5" height="72"/>
	<text transform="matrix(1 0 0 1 448.5859 283.9844)" class="st3 st13">Ux</text>
	<path class="st7" d="M431.42,275.48v6 M428.42,278.48h6 M429.3,276.36l4.24,4.24 M429.3,280.6l4.24-4.24"/>
	<text transform="matrix(1 0 0 1 448.5859 301.3282)" class="st3 st13">Uy</text>
	<line class="st8" x1="416.49" y1="295.83" x2="446.35" y2="295.83"/>
	<path class="st9" d="M431.42,293.08c1.52,0,2.75,1.23,2.75,2.75l0,0c0,1.52-1.23,2.75-2.75,2.75s-2.75-1.23-2.75-2.75
		C428.67,294.31,429.9,293.08,431.42,293.08L431.42,293.08z M431.42,292.58c-1.8,0-3.25,1.46-3.25,3.25c0,1.8,1.45,3.25,3.25,3.25
		s3.25-1.46,3.25-3.25l0,0C434.67,294.03,433.21,292.58,431.42,292.58L431.42,292.58z"/>
	<text transform="matrix(1 0 0 1 448.5859 318.6719)" class="st3 st13">Uz</text>
	<line class="st10" x1="416.49" y1="313.17" x2="446.35" y2="313.17"/>
	<path class="st11" d="M431.42,310.17v6 M428.42,313.17h6"/>
	<text transform="matrix(1 0 0 1 448.5859 336.0157)" class="st3 st13">Us</text>
	<line class="st12" x1="416.49" y1="330.52" x2="446.35" y2="330.52"/>
	<rect x="413.5" y="268.5" class="st14" width="54.5" height="72"/>
</g>
</svg>
