<?xml version="1.0" encoding="utf-8"?>
<!-- Generator: Adobe Illustrator 23.0.3, SVG Export Plug-In . SVG Version: 6.00 Build 0)  -->
<svg version="1.1" id="图层_1" xmlns="http://www.w3.org/2000/svg" xmlns:xlink="http://www.w3.org/1999/xlink" x="0px" y="0px"
	 viewBox="0 0 612 792" style="enable-background:new 0 0 612 792;" xml:space="preserve">
<style type="text/css">
	.st0{fill:#FFFFFF;}
	.st1{fill:none;stroke:#DFDFDF;stroke-width:0.5;stroke-linejoin:round;stroke-miterlimit:10;}
	.st2{fill:none;stroke:#262626;stroke-width:0.5;stroke-linecap:square;stroke-linejoin:round;stroke-miterlimit:10;}
	.st3{fill:#4C4948;}
	.st4{font-family:'Helvetica';}
	.st5{font-size:16px;}
	.st6{letter-spacing:68;}
	.st7{font-size:17.6px;}
	.st8{fill:#262626;}
	.st9{font-size:12.8px;}
	.st10{font-family:'Helvetica-Bold';}
	.st11{fill:none;stroke:#E71F19;stroke-width:0.5;stroke-linejoin:round;stroke-miterlimit:10;}
</style>
<g>
	<rect x="-42" y="153" class="st0" width="696" height="486"/>
	<rect x="-42" y="153" class="st0" width="696" height="486"/>
	<rect x="48.5" y="189.5" class="st0" width="539.5" height="396"/>
	<path class="st1" d="M48.5,585.5v-396 M125.57,585.5v-396 M202.64,585.5v-396 M279.71,585.5v-396 M356.79,585.5v-396 M433.86,585.5
		v-396 M510.93,585.5v-396 M588,585.5v-396 M588,585.5H48.5 M588,545.9H48.5 M588,506.3H48.5 M588,466.7H48.5 M588,427.1H48.5
		 M588,387.5H48.5 M588,347.9H48.5 M588,308.3H48.5 M588,268.7H48.5 M588,229.1H48.5 M588,189.5H48.5"/>
	<path class="st2" d="M48.5,585.5H588 M48.5,189.5H588 M48.5,585.5v-5.4 M125.57,585.5v-5.4 M202.64,585.5v-5.4 M279.71,585.5v-5.4
		 M356.79,585.5v-5.4 M433.86,585.5v-5.4 M510.93,585.5v-5.4 M588,585.5v-5.4 M48.5,189.5v5.39 M125.57,189.5v5.39 M202.64,189.5
		v5.39 M279.71,189.5v5.39 M356.79,189.5v5.39 M433.86,189.5v5.39 M510.93,189.5v5.39 M588,189.5v5.39"/>
	<text transform="matrix(1 0 0 1 44 607.2031)" class="st3 st4 st5 st6">05</text>
	<text transform="matrix(1 0 0 1 193.6406 607.2031)" class="st3 st4 st5">10</text>
	<text transform="matrix(1 0 0 1 270.7188 607.2031)" class="st3 st4 st5">15</text>
	<text transform="matrix(1 0 0 1 347.7891 607.2031)" class="st3 st4 st5">20</text>
	<text transform="matrix(1 0 0 1 424.8594 607.2031)" class="st3 st4 st5">25</text>
	<text transform="matrix(1 0 0 1 501.9297 607.2031)" class="st3 st4 st5">30</text>
	<text transform="matrix(1 0 0 1 579 607.2031)" class="st3 st4 st5">35</text>
	<text transform="matrix(1 0 0 1 291.75 630.2031)" class="st3 st4 st7">Time/s</text>
	<path class="st2" d="M48.5,585.5v-396 M588,585.5v-396 M48.5,585.5h5.4 M48.5,545.9h5.4 M48.5,506.3h5.4 M48.5,466.7h5.4
		 M48.5,427.1h5.4 M48.5,387.5h5.4 M48.5,347.9h5.4 M48.5,308.3h5.4 M48.5,268.7h5.4 M48.5,229.1h5.4 M48.5,189.5h5.4 M588,585.5
		h-5.4 M588,545.9h-5.4 M588,506.3h-5.4 M588,466.7h-5.4 M588,427.1h-5.4 M588,387.5h-5.4 M588,347.9h-5.4 M588,308.3h-5.4
		 M588,268.7h-5.4 M588,229.1h-5.4 M588,189.5h-5.4"/>
	<text transform="matrix(1 0 0 1 34.3047 591.7578)" class="st3 st4 st5">0</text>
	<text transform="matrix(1 0 0 1 20.7969 552.1562)" class="st3 st4 st5">0.1</text>
	<text transform="matrix(1 0 0 1 20.7969 512.5469)" class="st3 st4 st5">0.2</text>
	<text transform="matrix(1 0 0 1 20.7969 472.9453)" class="st3 st4 st5">0.3</text>
	<text transform="matrix(1 0 0 1 20.7969 433.3438)" class="st3 st4 st5">0.4</text>
	<text transform="matrix(1 0 0 1 20.7969 393.75)" class="st3 st4 st5">0.5</text>
	<text transform="matrix(1 0 0 1 20.7969 354.1484)" class="st3 st4 st5">0.6</text>
	<text transform="matrix(1 0 0 1 20.7969 314.5469)" class="st3 st4 st5">0.7</text>
	<text transform="matrix(1 0 0 1 20.7969 274.9531)" class="st3 st4 st5">0.8</text>
	<text transform="matrix(1 0 0 1 20.7969 235.3516)" class="st3 st4 st5">0.9</text>
	<text transform="matrix(1 0 0 1 34.3047 195.75)" class="st3 st4 st5">1</text>
	<text transform="matrix(0 -1 1 0 13.7969 428.7578)" class="st3 st4 st7">Probability</text>
	<path class="st8" d="M50.85,185.04c0-0.08,0.03-0.16,0.08-0.23l3.33-3.31l-3.33-3.33c-0.05-0.05-0.08-0.12-0.08-0.21
		c0-0.08,0.03-0.15,0.09-0.22c0.06-0.07,0.14-0.1,0.23-0.1c0.07,0,0.15,0.03,0.24,0.1l3.31,3.31l3.3-3.31
		c0.09-0.07,0.17-0.1,0.23-0.1c0.09,0,0.16,0.03,0.23,0.09c0.06,0.06,0.09,0.14,0.09,0.23c0,0.09-0.03,0.16-0.08,0.21l-3.33,3.33
		l3.33,3.31c0.05,0.07,0.08,0.14,0.08,0.23c0,0.09-0.03,0.16-0.09,0.23c-0.06,0.06-0.14,0.09-0.23,0.09c-0.08,0-0.16-0.04-0.23-0.12
		l-3.3-3.3l-3.31,3.3c-0.08,0.08-0.16,0.12-0.24,0.12c-0.09,0-0.16-0.03-0.23-0.1C50.88,185.19,50.85,185.12,50.85,185.04
		L50.85,185.04z"/>
	<text transform="matrix(1 0 0 1 61 185.5078)" class="st3 st4 st5">10</text>
	<text transform="matrix(1 0 0 1 79 177.5)" class="st3 st4 st9">-7</text>
	<text transform="matrix(1 0 0 1 96.25 183.2969)" class="st10 st7">Collision Probability after Taking Avoidance Strategy</text>
	<polyline class="st11" points="48.5,585.5 63.91,585.5 79.33,585.5 94.74,585.5 110.16,585.5 125.57,585.5 140.99,585.5 
		156.4,585.5 171.81,585.5 187.23,585.5 202.64,585.5 218.06,585.5 233.47,585.5 248.89,585.5 264.3,585.5 279.71,585.5 
		295.13,585.5 310.54,585.5 325.96,585.5 341.37,585.5 356.79,585.49 372.2,583.62 387.61,531.33 403.03,304.74 418.44,199.08 
		433.86,426.49 449.27,568.15 464.69,584.87 480.1,585.5 495.51,585.5 510.93,585.5 526.34,585.5 541.76,585.5 557.17,585.5 
		572.59,585.5 588,585.5 	"/>
</g>
</svg>
