<?xml version="1.0" encoding="utf-8"?>
<!-- Generator: Adobe Illustrator 23.0.3, SVG Export Plug-In . SVG Version: 6.00 Build 0)  -->
<svg version="1.1" id="图层_1" xmlns="http://www.w3.org/2000/svg" xmlns:xlink="http://www.w3.org/1999/xlink" x="0px" y="0px"
	 viewBox="0 0 612 792" style="enable-background:new 0 0 612 792;" xml:space="preserve">
<style type="text/css">
	.st0{fill:#FFFFFF;}
	.st1{fill:none;stroke:#DFDFDF;stroke-width:0.5;stroke-linejoin:round;stroke-miterlimit:10;}
	.st2{fill:none;stroke:#262626;stroke-width:0.5;stroke-linecap:square;stroke-linejoin:round;stroke-miterlimit:10;}
	.st3{fill:#4C4948;}
	.st4{font-family:'Helvetica';}
	.st5{font-size:16px;}
	.st6{letter-spacing:74;}
	.st7{letter-spacing:70;}
	.st8{font-size:17.6px;}
	.st9{font-family:'Helvetica-Bold';}
	.st10{fill:none;stroke:#17499D;stroke-width:0.5;stroke-linejoin:round;stroke-miterlimit:10;}
	.st11{fill:#FAFAFD;}
	.st12{fill:none;stroke:#595959;stroke-width:0.5;stroke-linejoin:round;stroke-miterlimit:10;}
	.st13{fill:#666565;}
	.st14{font-size:10px;}
	.st15{fill:#348CCC;}
	.st16{fill:#262626;}
	.st17{fill:#FCFBDB;}
</style>
<g>
	<rect x="96" y="237" class="st0" width="420" height="315"/>
	<rect x="96" y="237" class="st0" width="420" height="315"/>
	<rect x="167" y="263.5" class="st0" width="309" height="239.5"/>
	<path class="st1" d="M167,503V263.5 M255.29,503V263.5 M343.57,503V263.5 M431.86,503V263.5 M476,503H167 M476,463.08H167
		 M476,423.17H167 M476,383.25H167 M476,343.33H167 M476,303.42H167 M476,263.5H167"/>
	<path class="st2" d="M167,503h309 M167,263.5h309 M167,503v-3.09 M255.29,503v-3.09 M343.57,503v-3.09 M431.86,503v-3.09
		 M167,263.5v3.09 M255.29,263.5v3.09 M343.57,263.5v3.09 M431.86,263.5v3.09"/>
	<text transform="matrix(1 0 0 1 162.5 524.7031)" class="st3 st4 st5 st6">01</text>
	<text transform="matrix(1 0 0 1 255.1875 524.7031)" class="st3 st4 st5 st7">02</text>
	<text transform="matrix(1 0 0 1 343.4688 524.7031)" class="st3 st4 st5 st7">03</text>
	<text transform="matrix(1 0 0 1 431.75 524.7031)" class="st3 st4 st5">0</text>
	<text transform="matrix(1 0 0 1 295 548.2031)" class="st3 st4 st8">Time/s</text>
	<path class="st2" d="M167,503V263.5 M476,503V263.5 M167,503h3.09 M167,463.08h3.09 M167,423.17h3.09 M167,383.25h3.09 M167,343.33
		h3.09 M167,303.42h3.09 M167,263.5h3.09 M476,503h-3.09 M476,463.08h-3.09 M476,423.17h-3.09 M476,383.25h-3.09 M476,343.33h-3.09
		 M476,303.42h-3.09 M476,263.5h-3.09"/>
	<text transform="matrix(1 0 0 1 152.8047 509.25)" class="st3 st4 st5">0</text>
	<text transform="matrix(1 0 0 1 121.3047 469.336)" class="st3 st4 st5">0.005</text>
	<text transform="matrix(1 0 0 1 130.3047 429.4141)" class="st3 st4 st5">0.01</text>
	<text transform="matrix(1 0 0 1 121.3047 389.5)" class="st3 st4 st5">0.015</text>
	<text transform="matrix(1 0 0 1 130.3047 349.5782)" class="st3 st4 st5">0.02</text>
	<text transform="matrix(1 0 0 1 121.3047 309.6719)" class="st3 st4 st5">0.025</text>
	<text transform="matrix(1 0 0 1 130.3047 269.75)" class="st3 st4 st5">0.03</text>
	<text transform="matrix(0 -1 1 0 113.7969 461.5078)" class="st3 st4 st8">Collision probability </text>
	<text transform="matrix(1 0 0 1 142.5 257.3047)" class="st9 st8">Collision probability before taking strategy</text>
	<polyline class="st10" points="167,503 175.83,503 184.66,503 193.49,503 202.31,503 211.14,503 219.97,503 228.8,503 237.63,503 
		246.46,503 255.29,503 264.11,503 272.94,503 281.77,503 290.6,503 299.43,503 308.26,503 317.09,503 325.91,503 334.74,503 
		343.57,503 352.4,503 361.23,503 370.06,502.26 378.89,284.21 387.71,503 396.54,503 405.37,503 414.2,503 423.03,503 431.86,503 
		440.69,503 449.51,503 458.34,503 467.17,503 476,503 	"/>
	<polygon class="st11" points="379.89,287.01 379.89,319.41 379.89,319.53 379.9,319.64 379.92,319.76 379.95,319.88 379.98,319.99 
		380.02,320.1 380.07,320.21 380.13,320.31 380.19,320.41 380.26,320.51 380.33,320.6 380.41,320.68 380.5,320.76 380.59,320.84 
		380.69,320.91 380.79,320.97 380.89,321.02 381,321.07 381.11,321.11 381.22,321.15 381.33,321.17 381.45,321.19 381.57,321.21 
		381.69,321.21 434.09,321.21 434.2,321.21 434.32,321.19 434.44,321.17 434.55,321.15 434.66,321.11 434.77,321.07 434.88,321.02 
		434.99,320.97 435.09,320.91 435.18,320.84 435.27,320.76 435.36,320.68 435.44,320.6 435.51,320.51 435.58,320.41 435.64,320.31 
		435.7,320.21 435.75,320.1 435.79,319.99 435.82,319.88 435.85,319.76 435.87,319.64 435.88,319.53 435.89,319.41 435.89,287.01 
		435.88,286.89 435.87,286.77 435.85,286.66 435.82,286.54 435.79,286.43 435.75,286.32 435.7,286.21 435.64,286.11 435.58,286.01 
		435.51,285.91 435.44,285.82 435.36,285.74 435.27,285.66 435.18,285.58 435.09,285.51 434.99,285.45 434.88,285.39 434.77,285.35 
		434.66,285.3 434.55,285.27 434.44,285.24 434.32,285.23 434.2,285.21 434.09,285.21 381.69,285.21 381.57,285.21 381.45,285.23 
		381.33,285.24 381.22,285.27 381.11,285.3 381,285.35 380.89,285.39 380.79,285.45 380.69,285.51 380.59,285.58 380.5,285.66 
		380.41,285.74 380.33,285.82 380.26,285.91 380.19,286.01 380.13,286.11 380.07,286.21 380.02,286.32 379.98,286.43 379.95,286.54 
		379.92,286.66 379.9,286.77 379.89,286.89 	"/>
	<polygon class="st12" points="379.89,319.41 379.89,319.53 379.9,319.64 379.92,319.76 379.95,319.88 379.98,319.99 380.02,320.1 
		380.07,320.21 380.13,320.31 380.19,320.41 380.26,320.51 380.33,320.6 380.41,320.68 380.5,320.76 380.59,320.84 380.69,320.91 
		380.79,320.97 380.89,321.02 381,321.07 381.11,321.11 381.22,321.15 381.33,321.17 381.45,321.19 381.57,321.21 381.69,321.21 
		434.09,321.21 434.2,321.21 434.32,321.19 434.44,321.17 434.55,321.15 434.66,321.11 434.77,321.07 434.88,321.02 434.99,320.97 
		435.09,320.91 435.18,320.84 435.27,320.76 435.36,320.68 435.44,320.6 435.51,320.51 435.58,320.41 435.64,320.31 435.7,320.21 
		435.75,320.1 435.79,319.99 435.82,319.88 435.85,319.76 435.87,319.64 435.88,319.53 435.89,319.41 435.89,287.01 435.88,286.89 
		435.87,286.77 435.85,286.66 435.82,286.54 435.79,286.43 435.75,286.32 435.7,286.21 435.64,286.11 435.58,286.01 435.51,285.91 
		435.44,285.82 435.36,285.74 435.27,285.66 435.18,285.58 435.09,285.51 434.99,285.45 434.88,285.39 434.77,285.35 434.66,285.3 
		434.55,285.27 434.44,285.24 434.32,285.23 434.2,285.21 434.09,285.21 381.69,285.21 381.57,285.21 381.45,285.23 381.33,285.24 
		381.22,285.27 381.11,285.3 381,285.35 380.89,285.39 380.79,285.45 380.69,285.51 380.59,285.58 380.5,285.66 380.41,285.74 
		380.33,285.82 380.26,285.91 380.19,286.01 380.13,286.11 380.07,286.21 380.02,286.32 379.98,286.43 379.95,286.54 379.92,286.66 
		379.9,286.77 379.89,286.89 379.89,287.01 	"/>
	<text transform="matrix(1 0 0 1 385 300.5)" class="st13 st4 st14">X </text>
	<text transform="matrix(1 0 0 1 394.5 300.5)" class="st15 st9 st14">24</text>
	<text transform="matrix(1 0 0 1 385 313.5)" class="st13 st4 st14">Y </text>
	<text transform="matrix(1 0 0 1 394.5 313.5)" class="st15 st9 st14">0.02741</text>
	<path class="st16" d="M380.89,284.21c0-1.1-0.9-2-2-2c-1.1,0-2,0.9-2,2c0,1.1,0.9,2,2,2C379.99,286.21,380.89,285.31,380.89,284.21
		L380.89,284.21z"/>
	<path class="st17" d="M378.89,282.21c1.1,0,2,0.9,2,2l0,0c0,1.1-0.9,2-2,2c-1.1,0-2-0.9-2-2
		C376.89,283.11,377.78,282.21,378.89,282.21L378.89,282.21z M378.89,281.21c-1.66,0-3,1.34-3,3c0,1.66,1.34,3,3,3
		c1.66,0,3-1.34,3-3l0,0C381.89,282.55,380.54,281.21,378.89,281.21L378.89,281.21z"/>
</g>
</svg>
