<?xml version="1.0" encoding="utf-8"?>
<!-- Generator: Adobe Illustrator 23.0.3, SVG Export Plug-In . SVG Version: 6.00 Build 0)  -->
<svg version="1.1" id="图层_1" xmlns="http://www.w3.org/2000/svg" xmlns:xlink="http://www.w3.org/1999/xlink" x="0px" y="0px"
	 viewBox="0 0 612 792" style="enable-background:new 0 0 612 792;" xml:space="preserve">
<style type="text/css">
	.st0{fill:#FFFFFF;}
	.st1{fill:none;stroke:#262626;stroke-width:0.5;stroke-linecap:square;stroke-linejoin:round;stroke-miterlimit:10;}
	.st2{fill:#4C4948;}
	.st3{font-family:'Helvetica';}
	.st4{font-size:15px;}
	.st5{letter-spacing:54;}
	.st6{font-size:16.5px;}
	.st7{fill:none;stroke:#000000;stroke-width:0.5;stroke-linejoin:round;stroke-miterlimit:10;}
	.st8{fill:none;stroke:#17499D;stroke-width:0.5;stroke-miterlimit:10;}
	.st9{font-size:13.5px;}
	.st10{fill:none;stroke:#262626;stroke-width:0.5;stroke-miterlimit:10;}
</style>
<g>
	<rect x="96" y="237" class="st0" width="420" height="315"/>
	<rect x="96" y="237" class="st0" width="420" height="315"/>
	<rect x="163" y="260.5" class="st0" width="313" height="245.5"/>
	<path class="st1" d="M163,506h313 M163,260.5h313 M163,506v-3.13 M225.6,506v-3.13 M288.2,506v-3.13 M350.8,506v-3.13 M413.4,506
		v-3.13 M476,506v-3.13 M163,260.5v3.13 M225.6,260.5v3.13 M288.2,260.5v3.13 M350.8,260.5v3.13 M413.4,260.5v3.13 M476,260.5v3.13"
		/>
	<text transform="matrix(1 0 0 1 158.75 526.5)" class="st2 st3 st4 st5">05</text>
	<text transform="matrix(1 0 0 1 279.7031 526.5)" class="st2 st3 st4">10</text>
	<text transform="matrix(1 0 0 1 342.2969 526.5)" class="st2 st3 st4">15</text>
	<text transform="matrix(1 0 0 1 404.9062 526.5)" class="st2 st3 st4">20</text>
	<text transform="matrix(1 0 0 1 467.5 526.5)" class="st2 st3 st4">25</text>
	<text transform="matrix(1 0 0 1 294.75 548)" class="st2 st3 st6">Time/</text>
	<text transform="matrix(1 0 0 1 336 548)" class="st2 st3 st6">s</text>
	<path class="st1" d="M163,506V260.5 M476,506V260.5 M163,506h3.13 M163,470.93h3.13 M163,435.86h3.13 M163,400.79h3.13 M163,365.71
		h3.13 M163,330.64h3.13 M163,295.57h3.13 M163,260.5h3.13 M476,506h-3.13 M476,470.93h-3.13 M476,435.86h-3.13 M476,400.79h-3.13
		 M476,365.71h-3.13 M476,330.64h-3.13 M476,295.57h-3.13 M476,260.5h-3.13"/>
	<text transform="matrix(1 0 0 1 128.5 511.9922)" class="st2 st3 st4">1.08</text>
	<text transform="matrix(1 0 0 1 120 476.9219)" class="st2 st3 st4">1.085</text>
	<text transform="matrix(1 0 0 1 128.5 441.8594)" class="st2 st3 st4">1.09</text>
	<text transform="matrix(1 0 0 1 120 406.7813)" class="st2 st3 st4">1.095</text>
	<text transform="matrix(1 0 0 1 137 371.711)" class="st2 st3 st4">1.1</text>
	<text transform="matrix(1 0 0 1 120 336.6407)" class="st2 st3 st4">1.105</text>
	<text transform="matrix(1 0 0 1 128.5 301.5782)" class="st2 st3 st4">1.11</text>
	<text transform="matrix(1 0 0 1 120 266.5)" class="st2 st3 st4">1.115</text>
	<text transform="matrix(0 -1 1 0 113 423.7422)" class="st2 st3 st6">State X/km</text>
	<polyline class="st7" points="163,310.96 175.52,319.08 188.04,327.18 200.56,335.26 213.08,343.32 225.6,351.37 238.12,359.4 
		250.64,367.41 263.16,375.4 275.68,383.37 288.2,391.32 300.72,399.26 313.24,407.18 325.76,415.07 338.28,422.95 350.8,430.82 
		363.32,438.66 375.84,446.48 388.36,454.29 400.88,462.07 413.4,469.84 425.92,477.59 438.44,485.32 450.96,493.03 463.48,500.72 	
		"/>
	<path class="st8" d="M163,307.96v6 M160,310.96h6 M160.88,308.84l4.24,4.24 M160.88,313.08l4.24-4.24 M169.26,311.51v6
		 M166.26,314.51h6 M167.14,312.39l4.24,4.24 M167.14,316.64l4.24-4.24 M175.52,314.12v6 M172.52,317.12h6 M173.4,315l4.24,4.24
		 M173.4,319.24l4.24-4.24 M181.78,315.87v6 M178.78,318.87h6 M179.66,316.75l4.24,4.24 M179.66,320.99l4.24-4.24 M188.04,316.86v6
		 M185.04,319.86h6 M185.92,317.74l4.24,4.24 M185.92,321.99l4.24-4.24 M194.3,317.2v6 M191.3,320.2h6 M192.18,318.08l4.24,4.24
		 M192.18,322.32l4.24-4.24 M200.56,316.98v6 M197.56,319.98h6 M198.44,317.86l4.24,4.24 M198.44,322.11l4.24-4.24 M206.82,316.32v6
		 M203.82,319.32h6 M204.7,317.2l4.24,4.24 M204.7,321.44l4.24-4.24 M213.08,315.3v6 M210.08,318.3h6 M210.96,316.18l4.24,4.24
		 M210.96,320.42l4.24-4.24 M219.34,314.02v6 M216.34,317.02h6 M217.22,314.9l4.24,4.24 M217.22,319.14l4.24-4.24 M225.6,312.57v6
		 M222.6,315.57h6 M223.48,313.45l4.24,4.24 M223.48,317.69l4.24-4.24 M231.86,311.04v6 M228.86,314.04h6 M229.74,311.92l4.24,4.24
		 M229.74,316.16l4.24-4.24 M238.12,309.49v6 M235.12,312.49h6 M236,310.37l4.24,4.24 M236,314.61l4.24-4.24 M244.38,307.99v6
		 M241.38,310.99h6 M242.26,308.87l4.24,4.24 M242.26,313.11l4.24-4.24 M250.64,306.58v6 M247.64,309.58h6 M248.52,307.46l4.24,4.24
		 M248.52,311.7l4.24-4.24 M256.9,305.3v6 M253.9,308.3h6 M254.78,306.18l4.24,4.24 M254.78,310.43l4.24-4.24 M263.16,304.18v6
		 M260.16,307.18h6 M261.04,305.05l4.24,4.24 M261.04,309.3l4.24-4.24 M269.42,303.2v6 M266.42,306.2h6 M267.3,304.08l4.24,4.24
		 M267.3,308.32l4.24-4.24 M275.68,302.36v6 M272.68,305.36h6 M273.56,303.24l4.24,4.24 M273.56,307.48l4.24-4.24 M281.94,301.62v6
		 M278.94,304.62h6 M279.82,302.49l4.24,4.24 M279.82,306.74l4.24-4.24 M288.2,300.91v6 M285.2,303.91h6 M286.08,301.78l4.24,4.24
		 M286.08,306.03l4.24-4.24 M294.46,300.15v6 M291.46,303.15h6 M292.34,301.03l4.24,4.24 M292.34,305.27l4.24-4.24 M300.72,299.23v6
		 M297.72,302.23h6 M298.6,300.11l4.24,4.24 M298.6,304.35l4.24-4.24 M306.98,298.02v6 M303.98,301.02h6 M304.86,298.89l4.24,4.24
		 M304.86,303.14l4.24-4.24 M313.24,296.34v6 M310.24,299.34h6 M311.12,297.22l4.24,4.24 M311.12,301.46l4.24-4.24 M319.5,295.22v6
		 M316.5,298.22h6 M317.38,296.1l4.24,4.24 M317.38,300.34l4.24-4.24 M325.76,294.1v6 M322.76,297.1h6 M323.64,294.98l4.24,4.24
		 M323.64,299.22l4.24-4.24 M332.02,292.97v6 M329.02,295.97h6 M329.9,293.85l4.24,4.24 M329.9,298.09l4.24-4.24 M338.28,291.84v6
		 M335.28,294.84h6 M336.16,292.72l4.24,4.24 M336.16,296.97l4.24-4.24 M344.54,290.71v6 M341.54,293.71h6 M342.42,291.59l4.24,4.24
		 M342.42,295.83l4.24-4.24 M350.8,289.58v6 M347.8,292.58h6 M348.68,290.46l4.24,4.24 M348.68,294.7l4.24-4.24 M357.06,288.44v6
		 M354.06,291.44h6 M354.94,289.32l4.24,4.24 M354.94,293.57l4.24-4.24 M363.32,287.31v6 M360.32,290.31h6 M361.2,288.18l4.24,4.24
		 M361.2,292.43l4.24-4.24 M369.58,286.16v6 M366.58,289.16h6 M367.46,287.04l4.24,4.24 M367.46,291.29l4.24-4.24 M375.84,285.02v6
		 M372.84,288.02h6 M373.72,285.9l4.24,4.24 M373.72,290.14l4.24-4.24 M382.1,283.87v6 M379.1,286.87h6 M379.98,284.75l4.24,4.24
		 M379.98,288.99l4.24-4.24 M388.36,282.72v6 M385.36,285.72h6 M386.24,283.6l4.24,4.24 M386.24,287.84l4.24-4.24 M394.62,281.57v6
		 M391.62,284.57h6 M392.5,282.45l4.24,4.24 M392.5,286.69l4.24-4.24 M400.88,280.41v6 M397.88,283.41h6 M398.76,281.29l4.24,4.24
		 M398.76,285.53l4.24-4.24 M407.14,279.26v6 M404.14,282.26h6 M405.02,280.13l4.24,4.24 M405.02,284.38l4.24-4.24 M413.4,278.09v6
		 M410.4,281.09h6 M411.28,278.97l4.24,4.24 M411.28,283.22l4.24-4.24 M419.66,276.93v6 M416.66,279.93h6 M417.54,277.81l4.24,4.24
		 M417.54,282.05l4.24-4.24 M425.92,275.76v6 M422.92,278.76h6 M423.8,276.64l4.24,4.24 M423.8,280.89l4.24-4.24 M432.18,274.59v6
		 M429.18,277.59h6 M430.06,275.47l4.24,4.24 M430.06,279.72l4.24-4.24 M438.44,273.42v6 M435.44,276.42h6 M436.32,274.3l4.24,4.24
		 M436.32,278.54l4.24-4.24 M444.7,272.25v6 M441.7,275.25h6 M442.58,273.13l4.24,4.24 M442.58,277.37l4.24-4.24 M450.96,271.07v6
		 M447.96,274.07h6 M448.84,271.95l4.24,4.24 M448.84,276.19l4.24-4.24 M457.22,269.89v6 M454.22,272.89h6 M455.1,270.77l4.24,4.24
		 M455.1,275.01l4.24-4.24 M463.48,268.71v6 M460.48,271.71h6 M461.36,269.59l4.24,4.24 M461.36,273.83l4.24-4.24"/>
	<rect x="164.5" y="466.5" class="st0" width="122.5" height="37.5"/>
	<text transform="matrix(1 0 0 1 199.6797 482.0313)" class="st3 st9">No Strategy</text>
	<line class="st7" x1="167.49" y1="476.53" x2="197.43" y2="476.53"/>
	<text transform="matrix(1 0 0 1 199.6797 499.4688)" class="st3 st9">Take Strategy</text>
	<path class="st8" d="M182.46,490.97v6 M179.46,493.97h6 M180.34,491.85l4.24,4.24 M180.34,496.09l4.24-4.24"/>
	<rect x="164.5" y="466.5" class="st10" width="122.5" height="37.5"/>
</g>
</svg>
