<?xml version="1.0" encoding="utf-8"?>
<!-- Generator: Adobe Illustrator 23.0.3, SVG Export Plug-In . SVG Version: 6.00 Build 0)  -->
<svg version="1.1" id="图层_1" xmlns="http://www.w3.org/2000/svg" xmlns:xlink="http://www.w3.org/1999/xlink" x="0px" y="0px"
	 viewBox="0 0 612 792" style="enable-background:new 0 0 612 792;" xml:space="preserve">
<style type="text/css">
	.st0{fill:#FFFFFF;}
	.st1{fill:none;stroke:#262626;stroke-width:0.5;stroke-linecap:square;stroke-linejoin:round;stroke-miterlimit:10;}
	.st2{fill:#4C4948;}
	.st3{font-family:'Helvetica';}
	.st4{font-size:15px;}
	.st5{letter-spacing:56;}
	.st6{font-size:16.5px;}
	.st7{fill:none;stroke:#000000;stroke-width:0.5;stroke-linejoin:round;stroke-miterlimit:10;}
	.st8{fill:none;stroke:#E71F19;stroke-width:0.5;stroke-linejoin:round;stroke-miterlimit:10;}
	.st9{fill:#E71F19;}
	.st10{font-size:13.5px;}
	.st11{fill:none;stroke:#262626;stroke-width:0.5;stroke-miterlimit:10;}
</style>
<g>
	<rect x="96" y="237" class="st0" width="420" height="315"/>
	<rect x="96" y="237" class="st0" width="420" height="315"/>
	<rect x="150.5" y="260.5" class="st0" width="325.5" height="245.5"/>
	<path class="st1" d="M150.5,506H476 M150.5,260.5H476 M150.5,506v-3.26 M215.6,506v-3.26 M280.7,506v-3.26 M345.8,506v-3.26
		 M410.9,506v-3.26 M476,506v-3.26 M150.5,260.5v3.26 M215.6,260.5v3.26 M280.7,260.5v3.26 M345.8,260.5v3.26 M410.9,260.5v3.26
		 M476,260.5v3.26"/>
	<text transform="matrix(1 0 0 1 146.25 526.5)" class="st2 st3 st4 st5">05</text>
	<text transform="matrix(1 0 0 1 272.2031 526.5)" class="st2 st3 st4">10</text>
	<text transform="matrix(1 0 0 1 337.2969 526.5)" class="st2 st3 st4">15</text>
	<text transform="matrix(1 0 0 1 402.4062 526.5)" class="st2 st3 st4">20</text>
	<text transform="matrix(1 0 0 1 467.5 526.5)" class="st2 st3 st4">25</text>
	<text transform="matrix(1 0 0 1 288.5 548)" class="st2 st3 st6">Time/s</text>
	<path class="st1" d="M150.5,506V260.5 M476,506V260.5 M150.5,502.45h3.26 M150.5,463.95h3.26 M150.5,425.45h3.26 M150.5,386.95
		h3.26 M150.5,348.45h3.26 M150.5,309.95h3.26 M150.5,271.45h3.26 M476,502.45h-3.26 M476,463.95h-3.26 M476,425.45h-3.26
		 M476,386.95h-3.26 M476,348.45h-3.26 M476,309.95h-3.26 M476,271.45h-3.26"/>
	<text transform="matrix(1 0 0 1 137 508.4532)" class="st2 st3 st4">0</text>
	<text transform="matrix(1 0 0 1 124.5 469.9532)" class="st2 st3 st4">0.5</text>
	<text transform="matrix(1 0 0 1 137 431.4453)" class="st2 st3 st4">1</text>
	<text transform="matrix(1 0 0 1 124.5 392.9532)" class="st2 st3 st4">1.5</text>
	<text transform="matrix(1 0 0 1 137 354.4453)" class="st2 st3 st4">2</text>
	<text transform="matrix(1 0 0 1 124.5 315.9532)" class="st2 st3 st4">2.5</text>
	<text transform="matrix(1 0 0 1 137 277.4532)" class="st2 st3 st4">3</text>
	<text transform="matrix(0 -1 1 0 117.5 423.7422)" class="st2 st3 st6">State Y/km</text>
	<polyline class="st7" points="150.5,260.5 163.52,270.73 176.54,280.95 189.56,291.18 202.58,301.41 215.6,311.64 228.62,321.87 
		241.64,332.09 254.66,342.32 267.68,352.55 280.7,362.78 293.72,373.01 306.74,383.24 319.76,393.47 332.78,403.7 345.8,413.93 
		358.82,424.16 371.84,434.39 384.86,444.62 397.88,454.85 410.9,465.08 423.92,475.31 436.94,485.54 449.96,495.77 462.98,506 	"/>
	<polyline class="st8" points="150.5,260.5 157.01,265.67 163.52,270.89 170.03,276.13 176.54,281.33 183.05,286.45 189.56,291.44 
		196.07,296.28 202.58,300.93 209.09,305.38 215.6,309.6 222.11,313.6 228.62,317.36 235.13,320.88 241.64,324.19 248.15,327.3 
		254.66,330.23 261.17,333.02 267.68,335.7 274.19,338.33 280.7,340.95 287.21,343.64 293.72,346.47 300.23,349.52 306.74,352.87 
		313.25,355.82 319.76,358.76 326.27,361.71 332.78,364.66 339.29,367.6 345.8,370.55 352.31,373.5 358.82,376.44 365.33,379.39 
		371.84,382.34 378.35,385.28 384.86,388.23 391.37,391.18 397.88,394.12 404.39,397.07 410.9,400.02 417.41,402.96 423.92,405.91 
		430.43,408.86 436.94,411.81 443.45,414.75 449.96,417.7 456.47,420.65 462.98,423.59 	"/>
	<path class="st9" d="M150.5,257.75c1.52,0,2.75,1.23,2.75,2.75l0,0c0,1.52-1.23,2.75-2.75,2.75s-2.75-1.23-2.75-2.75
		S148.98,257.75,150.5,257.75L150.5,257.75z M150.5,257.25c-1.79,0-3.25,1.45-3.25,3.25s1.46,3.25,3.25,3.25s3.25-1.45,3.25-3.25
		l0,0C153.75,258.7,152.29,257.25,150.5,257.25L150.5,257.25z"/>
	<path class="st9" d="M157.01,262.92c1.52,0,2.75,1.23,2.75,2.75l0,0c0,1.52-1.23,2.75-2.75,2.75c-1.52,0-2.75-1.23-2.75-2.75
		C154.26,264.15,155.49,262.92,157.01,262.92L157.01,262.92z M157.01,262.42c-1.79,0-3.25,1.46-3.25,3.25c0,1.8,1.46,3.25,3.25,3.25
		c1.8,0,3.25-1.45,3.25-3.25l0,0C160.26,263.87,158.8,262.42,157.01,262.42L157.01,262.42z"/>
	<path class="st9" d="M163.52,268.14c1.52,0,2.75,1.23,2.75,2.75l0,0c0,1.52-1.23,2.75-2.75,2.75s-2.75-1.23-2.75-2.75
		C160.77,269.38,162,268.14,163.52,268.14L163.52,268.14z M163.52,267.64c-1.8,0-3.25,1.46-3.25,3.25c0,1.8,1.46,3.25,3.25,3.25
		c1.79,0,3.25-1.45,3.25-3.25l0,0C166.77,269.1,165.31,267.64,163.52,267.64L163.52,267.64z"/>
	<path class="st9" d="M170.03,273.38c1.52,0,2.75,1.23,2.75,2.75l0,0c0,1.52-1.23,2.75-2.75,2.75s-2.75-1.23-2.75-2.75
		C167.28,274.62,168.51,273.38,170.03,273.38L170.03,273.38z M170.03,272.88c-1.79,0-3.25,1.46-3.25,3.25c0,1.8,1.46,3.25,3.25,3.25
		c1.8,0,3.25-1.45,3.25-3.25l0,0C173.28,274.34,171.82,272.88,170.03,272.88L170.03,272.88z"/>
	<path class="st9" d="M176.54,278.58c1.52,0,2.75,1.23,2.75,2.75l0,0c0,1.52-1.23,2.75-2.75,2.75c-1.52,0-2.75-1.23-2.75-2.75
		C173.79,279.82,175.02,278.58,176.54,278.58L176.54,278.58z M176.54,278.08c-1.8,0-3.25,1.45-3.25,3.25c0,1.79,1.46,3.25,3.25,3.25
		c1.79,0,3.25-1.46,3.25-3.25l0,0C179.79,279.54,178.33,278.08,176.54,278.08L176.54,278.08z"/>
	<path class="st9" d="M183.05,283.7c1.52,0,2.75,1.23,2.75,2.75l0,0c0,1.52-1.23,2.75-2.75,2.75s-2.75-1.23-2.75-2.75
		C180.3,284.93,181.53,283.7,183.05,283.7L183.05,283.7z M183.05,283.2c-1.8,0-3.25,1.46-3.25,3.25c0,1.8,1.45,3.25,3.25,3.25
		c1.79,0,3.25-1.45,3.25-3.25l0,0C186.3,284.66,184.85,283.2,183.05,283.2L183.05,283.2z"/>
	<path class="st9" d="M189.56,288.69c1.52,0,2.75,1.23,2.75,2.75l0,0c0,1.52-1.23,2.75-2.75,2.75s-2.75-1.23-2.75-2.75
		S188.04,288.69,189.56,288.69L189.56,288.69z M189.56,288.19c-1.79,0-3.25,1.46-3.25,3.25s1.46,3.25,3.25,3.25
		c1.8,0,3.25-1.46,3.25-3.25l0,0C192.81,289.65,191.35,288.19,189.56,288.19L189.56,288.19z"/>
	<path class="st9" d="M196.07,293.53c1.52,0,2.75,1.23,2.75,2.75l0,0c0,1.52-1.23,2.75-2.75,2.75s-2.75-1.23-2.75-2.75
		C193.32,294.76,194.55,293.53,196.07,293.53L196.07,293.53z M196.07,293.03c-1.8,0-3.25,1.46-3.25,3.25c0,1.8,1.46,3.25,3.25,3.25
		c1.79,0,3.25-1.45,3.25-3.25l0,0C199.32,294.49,197.86,293.03,196.07,293.03L196.07,293.03z"/>
	<path class="st9" d="M202.58,298.18c1.52,0,2.75,1.23,2.75,2.75l0,0c0,1.52-1.23,2.75-2.75,2.75s-2.75-1.23-2.75-2.75
		C199.83,299.41,201.06,298.18,202.58,298.18L202.58,298.18z M202.58,297.68c-1.79,0-3.25,1.45-3.25,3.25
		c0,1.79,1.46,3.25,3.25,3.25s3.25-1.46,3.25-3.25l0,0C205.83,299.14,204.37,297.68,202.58,297.68L202.58,297.68z"/>
	<path class="st9" d="M209.09,302.63c1.52,0,2.75,1.23,2.75,2.75l0,0c0,1.52-1.23,2.75-2.75,2.75c-1.52,0-2.75-1.23-2.75-2.75
		C206.34,303.86,207.57,302.63,209.09,302.63L209.09,302.63z M209.09,302.13c-1.79,0-3.25,1.45-3.25,3.25
		c0,1.79,1.46,3.25,3.25,3.25c1.8,0,3.25-1.46,3.25-3.25l0,0C212.34,303.58,210.88,302.13,209.09,302.13L209.09,302.13z"/>
	<path class="st9" d="M215.6,306.85c1.52,0,2.75,1.23,2.75,2.75l0,0c0,1.52-1.23,2.75-2.75,2.75s-2.75-1.23-2.75-2.75
		C212.85,308.08,214.08,306.85,215.6,306.85L215.6,306.85z M215.6,306.35c-1.8,0-3.25,1.46-3.25,3.25c0,1.8,1.46,3.25,3.25,3.25
		c1.79,0,3.25-1.45,3.25-3.25l0,0C218.85,307.81,217.39,306.35,215.6,306.35L215.6,306.35z"/>
	<path class="st9" d="M222.11,310.85c1.52,0,2.75,1.23,2.75,2.75l0,0c0,1.52-1.23,2.75-2.75,2.75s-2.75-1.23-2.75-2.75
		C219.36,312.08,220.59,310.85,222.11,310.85L222.11,310.85z M222.11,310.35c-1.79,0-3.25,1.45-3.25,3.25
		c0,1.79,1.46,3.25,3.25,3.25c1.8,0,3.25-1.46,3.25-3.25l0,0C225.36,311.8,223.9,310.35,222.11,310.35L222.11,310.35z"/>
	<path class="st9" d="M228.62,314.61c1.52,0,2.75,1.23,2.75,2.75l0,0c0,1.52-1.23,2.75-2.75,2.75c-1.52,0-2.75-1.23-2.75-2.75
		C225.87,315.84,227.1,314.61,228.62,314.61L228.62,314.61z M228.62,314.11c-1.8,0-3.25,1.45-3.25,3.25c0,1.79,1.46,3.25,3.25,3.25
		c1.79,0,3.25-1.46,3.25-3.25l0,0C231.87,315.56,230.41,314.11,228.62,314.11L228.62,314.11z"/>
	<path class="st9" d="M235.13,318.13c1.52,0,2.75,1.23,2.75,2.75l0,0c0,1.52-1.23,2.75-2.75,2.75s-2.75-1.23-2.75-2.75
		C232.38,319.36,233.61,318.13,235.13,318.13L235.13,318.13z M235.13,317.63c-1.8,0-3.25,1.45-3.25,3.25c0,1.79,1.45,3.25,3.25,3.25
		c1.79,0,3.25-1.46,3.25-3.25l0,0C238.38,319.09,236.92,317.63,235.13,317.63L235.13,317.63z"/>
	<path class="st9" d="M241.64,321.44c1.52,0,2.75,1.23,2.75,2.75l0,0c0,1.52-1.23,2.75-2.75,2.75s-2.75-1.23-2.75-2.75
		C238.89,322.67,240.12,321.44,241.64,321.44L241.64,321.44z M241.64,320.94c-1.79,0-3.25,1.46-3.25,3.25c0,1.8,1.46,3.25,3.25,3.25
		c1.8,0,3.25-1.45,3.25-3.25l0,0C244.89,322.4,243.43,320.94,241.64,320.94L241.64,320.94z"/>
	<path class="st9" d="M248.15,324.55c1.52,0,2.75,1.23,2.75,2.75l0,0c0,1.52-1.23,2.75-2.75,2.75s-2.75-1.23-2.75-2.75
		S246.63,324.55,248.15,324.55L248.15,324.55z M248.15,324.05c-1.8,0-3.25,1.45-3.25,3.25s1.46,3.25,3.25,3.25
		c1.79,0,3.25-1.46,3.25-3.25l0,0C251.4,325.51,249.94,324.05,248.15,324.05L248.15,324.05z"/>
	<path class="st9" d="M254.66,327.48c1.52,0,2.75,1.23,2.75,2.75l0,0c0,1.52-1.23,2.75-2.75,2.75s-2.75-1.23-2.75-2.75
		S253.14,327.48,254.66,327.48L254.66,327.48z M254.66,326.98c-1.79,0-3.25,1.45-3.25,3.25c0,1.79,1.46,3.25,3.25,3.25
		c1.8,0,3.25-1.46,3.25-3.25l0,0C257.91,328.44,256.46,326.98,254.66,326.98L254.66,326.98z"/>
	<path class="st9" d="M261.17,330.27c1.52,0,2.75,1.23,2.75,2.75l0,0c0,1.52-1.23,2.75-2.75,2.75c-1.52,0-2.75-1.23-2.75-2.75
		C258.42,331.5,259.65,330.27,261.17,330.27L261.17,330.27z M261.17,329.77c-1.79,0-3.25,1.46-3.25,3.25c0,1.8,1.46,3.25,3.25,3.25
		c1.8,0,3.25-1.45,3.25-3.25l0,0C264.42,331.22,262.96,329.77,261.17,329.77L261.17,329.77z"/>
	<path class="st9" d="M267.68,332.95c1.52,0,2.75,1.23,2.75,2.75l0,0c0,1.52-1.23,2.75-2.75,2.75c-1.52,0-2.75-1.23-2.75-2.75
		S266.16,332.95,267.68,332.95L267.68,332.95z M267.68,332.45c-1.8,0-3.25,1.46-3.25,3.25c0,1.8,1.45,3.25,3.25,3.25
		c1.79,0,3.25-1.45,3.25-3.25l0,0C270.93,333.9,269.47,332.45,267.68,332.45L267.68,332.45z"/>
	<path class="st9" d="M274.19,335.58c1.52,0,2.75,1.23,2.75,2.75l0,0c0,1.52-1.23,2.75-2.75,2.75c-1.52,0-2.75-1.23-2.75-2.75
		S272.67,335.58,274.19,335.58L274.19,335.58z M274.19,335.08c-1.8,0-3.25,1.45-3.25,3.25s1.45,3.25,3.25,3.25
		c1.79,0,3.25-1.46,3.25-3.25l0,0C277.44,336.53,275.98,335.08,274.19,335.08L274.19,335.08z"/>
	<path class="st9" d="M280.7,338.2c1.52,0,2.75,1.23,2.75,2.75l0,0c0,1.52-1.23,2.75-2.75,2.75c-1.52,0-2.75-1.23-2.75-2.75
		S279.18,338.2,280.7,338.2L280.7,338.2z M280.7,337.7c-1.8,0-3.25,1.45-3.25,3.25c0,1.79,1.45,3.25,3.25,3.25s3.25-1.46,3.25-3.25
		l0,0C283.95,339.16,282.49,337.7,280.7,337.7L280.7,337.7z"/>
	<path class="st9" d="M287.21,340.89c1.52,0,2.75,1.23,2.75,2.75l0,0c0,1.52-1.23,2.75-2.75,2.75s-2.75-1.23-2.75-2.75
		S285.69,340.89,287.21,340.89L287.21,340.89z M287.21,340.39c-1.8,0-3.25,1.45-3.25,3.25c0,1.79,1.45,3.25,3.25,3.25
		s3.25-1.46,3.25-3.25l0,0C290.46,341.85,289.01,340.39,287.21,340.39L287.21,340.39z"/>
	<path class="st9" d="M293.72,343.72c1.52,0,2.75,1.23,2.75,2.75l0,0c0,1.52-1.23,2.75-2.75,2.75c-1.52,0-2.75-1.23-2.75-2.75
		C290.97,344.95,292.2,343.72,293.72,343.72L293.72,343.72z M293.72,343.22c-1.8,0-3.25,1.46-3.25,3.25c0,1.8,1.45,3.25,3.25,3.25
		c1.79,0,3.25-1.45,3.25-3.25l0,0C296.97,344.68,295.51,343.22,293.72,343.22L293.72,343.22z"/>
	<path class="st9" d="M300.23,346.77c1.52,0,2.75,1.23,2.75,2.75l0,0c0,1.52-1.23,2.75-2.75,2.75c-1.52,0-2.75-1.23-2.75-2.75
		C297.48,348,298.71,346.77,300.23,346.77L300.23,346.77z M300.23,346.27c-1.79,0-3.25,1.46-3.25,3.25c0,1.8,1.46,3.25,3.25,3.25
		c1.8,0,3.25-1.45,3.25-3.25l0,0C303.48,347.72,302.02,346.27,300.23,346.27L300.23,346.27z"/>
	<path class="st9" d="M306.74,350.12c1.52,0,2.75,1.23,2.75,2.75l0,0c0,1.52-1.23,2.75-2.75,2.75s-2.75-1.23-2.75-2.75
		C303.99,351.35,305.22,350.12,306.74,350.12L306.74,350.12z M306.74,349.62c-1.79,0-3.25,1.46-3.25,3.25c0,1.8,1.46,3.25,3.25,3.25
		s3.25-1.45,3.25-3.25l0,0C309.99,351.07,308.53,349.62,306.74,349.62L306.74,349.62z"/>
	<path class="st9" d="M313.25,353.07c1.52,0,2.75,1.23,2.75,2.75l0,0c0,1.52-1.23,2.75-2.75,2.75c-1.52,0-2.75-1.23-2.75-2.75
		S311.73,353.07,313.25,353.07L313.25,353.07z M313.25,352.57c-1.8,0-3.25,1.46-3.25,3.25c0,1.8,1.45,3.25,3.25,3.25
		c1.79,0,3.25-1.45,3.25-3.25l0,0C316.5,354.02,315.04,352.57,313.25,352.57L313.25,352.57z"/>
	<path class="st9" d="M319.76,356.01c1.52,0,2.75,1.23,2.75,2.75l0,0c0,1.52-1.23,2.75-2.75,2.75s-2.75-1.23-2.75-2.75
		S318.24,356.01,319.76,356.01L319.76,356.01z M319.76,355.51c-1.8,0-3.25,1.45-3.25,3.25s1.45,3.25,3.25,3.25s3.25-1.46,3.25-3.25
		l0,0C323.01,356.97,321.55,355.51,319.76,355.51L319.76,355.51z"/>
	<path class="st9" d="M326.27,358.96c1.52,0,2.75,1.23,2.75,2.75l0,0c0,1.52-1.23,2.75-2.75,2.75s-2.75-1.23-2.75-2.75
		S324.75,358.96,326.27,358.96L326.27,358.96z M326.27,358.46c-1.8,0-3.25,1.45-3.25,3.25s1.45,3.25,3.25,3.25s3.25-1.46,3.25-3.25
		l0,0C329.52,359.91,328.07,358.46,326.27,358.46L326.27,358.46z"/>
	<path class="st9" d="M332.78,361.91c1.52,0,2.75,1.23,2.75,2.75l0,0c0,1.52-1.23,2.75-2.75,2.75c-1.52,0-2.75-1.23-2.75-2.75
		C330.03,363.14,331.26,361.91,332.78,361.91L332.78,361.91z M332.78,361.41c-1.8,0-3.25,1.46-3.25,3.25c0,1.8,1.45,3.25,3.25,3.25
		c1.79,0,3.25-1.45,3.25-3.25l0,0C336.03,362.86,334.57,361.41,332.78,361.41L332.78,361.41z"/>
	<path class="st9" d="M339.29,364.85c1.52,0,2.75,1.23,2.75,2.75l0,0c0,1.52-1.23,2.75-2.75,2.75s-2.75-1.23-2.75-2.75
		C336.54,366.08,337.77,364.85,339.29,364.85L339.29,364.85z M339.29,364.35c-1.79,0-3.25,1.45-3.25,3.25
		c0,1.79,1.46,3.25,3.25,3.25s3.25-1.46,3.25-3.25l0,0C342.54,365.81,341.08,364.35,339.29,364.35L339.29,364.35z"/>
	<path class="st9" d="M345.8,367.8c1.52,0,2.75,1.23,2.75,2.75l0,0c0,1.52-1.23,2.75-2.75,2.75c-1.52,0-2.75-1.23-2.75-2.75
		C343.05,369.03,344.28,367.8,345.8,367.8L345.8,367.8z M345.8,367.3c-1.8,0-3.25,1.45-3.25,3.25c0,1.79,1.45,3.25,3.25,3.25
		c1.79,0,3.25-1.46,3.25-3.25l0,0C349.05,368.75,347.59,367.3,345.8,367.3L345.8,367.3z"/>
	<path class="st9" d="M352.31,370.75c1.52,0,2.75,1.23,2.75,2.75l0,0c0,1.52-1.23,2.75-2.75,2.75c-1.52,0-2.75-1.23-2.75-2.75
		S350.79,370.75,352.31,370.75L352.31,370.75z M352.31,370.25c-1.8,0-3.25,1.45-3.25,3.25s1.45,3.25,3.25,3.25s3.25-1.45,3.25-3.25
		l0,0C355.56,371.7,354.1,370.25,352.31,370.25L352.31,370.25z"/>
	<path class="st9" d="M358.82,373.69c1.52,0,2.75,1.23,2.75,2.75l0,0c0,1.52-1.23,2.75-2.75,2.75c-1.52,0-2.75-1.23-2.75-2.75
		C356.07,374.92,357.3,373.69,358.82,373.69L358.82,373.69z M358.82,373.19c-1.8,0-3.25,1.46-3.25,3.25c0,1.8,1.45,3.25,3.25,3.25
		c1.79,0,3.25-1.45,3.25-3.25l0,0C362.07,374.65,360.61,373.19,358.82,373.19L358.82,373.19z"/>
	<path class="st9" d="M365.33,376.64c1.52,0,2.75,1.23,2.75,2.75l0,0c0,1.52-1.23,2.75-2.75,2.75c-1.52,0-2.75-1.23-2.75-2.75
		C362.58,377.87,363.81,376.64,365.33,376.64L365.33,376.64z M365.33,376.14c-1.8,0-3.25,1.45-3.25,3.25c0,1.79,1.45,3.25,3.25,3.25
		c1.79,0,3.25-1.46,3.25-3.25l0,0C368.58,377.59,367.12,376.14,365.33,376.14L365.33,376.14z"/>
	<path class="st9" d="M371.84,379.59c1.52,0,2.75,1.23,2.75,2.75l0,0c0,1.52-1.23,2.75-2.75,2.75c-1.52,0-2.75-1.23-2.75-2.75
		C369.09,380.82,370.32,379.59,371.84,379.59L371.84,379.59z M371.84,379.09c-1.79,0-3.25,1.46-3.25,3.25c0,1.8,1.46,3.25,3.25,3.25
		c1.8,0,3.25-1.45,3.25-3.25l0,0C375.09,380.54,373.63,379.09,371.84,379.09L371.84,379.09z"/>
	<path class="st9" d="M378.35,382.53c1.52,0,2.75,1.23,2.75,2.75l0,0c0,1.52-1.23,2.75-2.75,2.75s-2.75-1.23-2.75-2.75
		S376.83,382.53,378.35,382.53L378.35,382.53z M378.35,382.03c-1.8,0-3.25,1.45-3.25,3.25s1.45,3.25,3.25,3.25s3.25-1.46,3.25-3.25
		l0,0C381.6,383.49,380.15,382.03,378.35,382.03L378.35,382.03z"/>
	<path class="st9" d="M384.86,385.48c1.52,0,2.75,1.23,2.75,2.75l0,0c0,1.52-1.23,2.75-2.75,2.75c-1.52,0-2.75-1.23-2.75-2.75
		C382.11,386.71,383.34,385.48,384.86,385.48L384.86,385.48z M384.86,384.98c-1.8,0-3.25,1.46-3.25,3.25c0,1.8,1.45,3.25,3.25,3.25
		c1.79,0,3.25-1.45,3.25-3.25l0,0C388.11,386.43,386.65,384.98,384.86,384.98L384.86,384.98z"/>
	<path class="st9" d="M391.37,388.43c1.52,0,2.75,1.23,2.75,2.75l0,0c0,1.52-1.23,2.75-2.75,2.75c-1.52,0-2.75-1.23-2.75-2.75
		S389.85,388.43,391.37,388.43L391.37,388.43z M391.37,387.93c-1.8,0-3.25,1.45-3.25,3.25s1.46,3.25,3.25,3.25
		c1.79,0,3.25-1.46,3.25-3.25l0,0C394.62,389.38,393.16,387.93,391.37,387.93L391.37,387.93z"/>
	<path class="st9" d="M397.88,391.37c1.52,0,2.75,1.23,2.75,2.75l0,0c0,1.52-1.23,2.75-2.75,2.75c-1.52,0-2.75-1.23-2.75-2.75
		C395.13,392.6,396.36,391.37,397.88,391.37L397.88,391.37z M397.88,390.87c-1.79,0-3.25,1.46-3.25,3.25c0,1.8,1.46,3.25,3.25,3.25
		c1.8,0,3.25-1.45,3.25-3.25l0,0C401.13,392.33,399.67,390.87,397.88,390.87L397.88,390.87z"/>
	<path class="st9" d="M404.39,394.32c1.52,0,2.75,1.23,2.75,2.75l0,0c0,1.52-1.23,2.75-2.75,2.75c-1.52,0-2.75-1.23-2.75-2.75
		C401.64,395.55,402.87,394.32,404.39,394.32L404.39,394.32z M404.39,393.82c-1.8,0-3.25,1.46-3.25,3.25c0,1.8,1.45,3.25,3.25,3.25
		c1.79,0,3.25-1.45,3.25-3.25l0,0C407.64,395.28,406.18,393.82,404.39,393.82L404.39,393.82z"/>
	<path class="st9" d="M410.9,397.27c1.52,0,2.75,1.23,2.75,2.75l0,0c0,1.52-1.23,2.75-2.75,2.75c-1.52,0-2.75-1.23-2.75-2.75
		C408.15,398.5,409.38,397.27,410.9,397.27L410.9,397.27z M410.9,396.77c-1.8,0-3.25,1.46-3.25,3.25s1.45,3.25,3.25,3.25
		c1.79,0,3.25-1.46,3.25-3.25l0,0C414.15,398.22,412.69,396.77,410.9,396.77L410.9,396.77z"/>
	<path class="st9" d="M417.41,400.21c1.52,0,2.75,1.23,2.75,2.75l0,0c0,1.52-1.23,2.75-2.75,2.75c-1.52,0-2.75-1.23-2.75-2.75
		C414.66,401.45,415.89,400.21,417.41,400.21L417.41,400.21z M417.41,399.71c-1.79,0-3.25,1.45-3.25,3.25
		c0,1.79,1.46,3.25,3.25,3.25c1.8,0,3.25-1.46,3.25-3.25l0,0C420.66,401.17,419.2,399.71,417.41,399.71L417.41,399.71z"/>
	<path class="st9" d="M423.92,403.16c1.52,0,2.75,1.23,2.75,2.75l0,0c0,1.52-1.23,2.75-2.75,2.75s-2.75-1.23-2.75-2.75
		S422.4,403.16,423.92,403.16L423.92,403.16z M423.92,402.66c-1.8,0-3.25,1.46-3.25,3.25s1.45,3.25,3.25,3.25s3.25-1.46,3.25-3.25
		l0,0C427.17,404.12,425.72,402.66,423.92,402.66L423.92,402.66z"/>
	<path class="st9" d="M430.43,406.11c1.52,0,2.75,1.23,2.75,2.75l0,0c0,1.52-1.23,2.75-2.75,2.75c-1.52,0-2.75-1.23-2.75-2.75
		S428.91,406.11,430.43,406.11L430.43,406.11z M430.43,405.61c-1.8,0-3.25,1.45-3.25,3.25c0,1.8,1.45,3.25,3.25,3.25
		c1.79,0,3.25-1.45,3.25-3.25l0,0C433.68,407.06,432.22,405.61,430.43,405.61L430.43,405.61z"/>
	<path class="st9" d="M436.94,409.06c1.52,0,2.75,1.23,2.75,2.75l0,0c0,1.52-1.23,2.75-2.75,2.75c-1.52,0-2.75-1.23-2.75-2.75
		C434.19,410.29,435.42,409.06,436.94,409.06L436.94,409.06z M436.94,408.56c-1.79,0-3.25,1.46-3.25,3.25c0,1.8,1.46,3.25,3.25,3.25
		c1.8,0,3.25-1.45,3.25-3.25l0,0C440.19,410.01,438.73,408.56,436.94,408.56L436.94,408.56z"/>
	<path class="st9" d="M443.45,412c1.52,0,2.75,1.23,2.75,2.75l0,0c0,1.52-1.23,2.75-2.75,2.75c-1.52,0-2.75-1.23-2.75-2.75
		S441.93,412,443.45,412L443.45,412z M443.45,411.5c-1.79,0-3.25,1.45-3.25,3.25c0,1.79,1.46,3.25,3.25,3.25
		c1.8,0,3.25-1.45,3.25-3.25l0,0C446.7,412.96,445.25,411.5,443.45,411.5L443.45,411.5z"/>
	<path class="st9" d="M449.96,414.95c1.52,0,2.75,1.23,2.75,2.75l0,0c0,1.52-1.23,2.75-2.75,2.75c-1.52,0-2.75-1.23-2.75-2.75
		S448.44,414.95,449.96,414.95L449.96,414.95z M449.96,414.45c-1.8,0-3.25,1.45-3.25,3.25c0,1.79,1.45,3.25,3.25,3.25
		c1.79,0,3.25-1.45,3.25-3.25l0,0C453.21,415.9,451.75,414.45,449.96,414.45L449.96,414.45z"/>
	<path class="st9" d="M456.47,417.9c1.52,0,2.75,1.23,2.75,2.75l0,0c0,1.52-1.23,2.75-2.75,2.75c-1.52,0-2.75-1.23-2.75-2.75
		S454.95,417.9,456.47,417.9L456.47,417.9z M456.47,417.4c-1.79,0-3.25,1.46-3.25,3.25s1.46,3.25,3.25,3.25
		c1.8,0,3.25-1.45,3.25-3.25l0,0C459.72,418.85,458.26,417.4,456.47,417.4L456.47,417.4z"/>
	<path class="st9" d="M462.98,420.84c1.52,0,2.75,1.23,2.75,2.75l0,0c0,1.52-1.23,2.75-2.75,2.75s-2.75-1.23-2.75-2.75
		S461.46,420.84,462.98,420.84L462.98,420.84z M462.98,420.34c-1.8,0-3.25,1.46-3.25,3.25s1.45,3.25,3.25,3.25s3.25-1.46,3.25-3.25
		l0,0C466.23,421.8,464.78,420.34,462.98,420.34L462.98,420.34z"/>
	<rect x="345.5" y="268.5" class="st0" width="122.5" height="37.5"/>
	<text transform="matrix(1 0 0 1 380.6797 284.0313)" class="st3 st10">No Strategy</text>
	<line class="st7" x1="348.49" y1="278.53" x2="378.43" y2="278.53"/>
	<text transform="matrix(1 0 0 1 380.6797 301.4688)" class="st3 st10">Take Strategy</text>
	<line class="st8" x1="348.49" y1="295.97" x2="378.43" y2="295.97"/>
	<path class="st9" d="M363.46,293.22c1.52,0,2.75,1.23,2.75,2.75l0,0c0,1.52-1.23,2.75-2.75,2.75c-1.52,0-2.75-1.23-2.75-2.75
		C360.71,294.45,361.94,293.22,363.46,293.22L363.46,293.22z M363.46,292.72c-1.79,0-3.25,1.45-3.25,3.25s1.46,3.25,3.25,3.25
		c1.8,0,3.25-1.45,3.25-3.25l0,0C366.71,294.17,365.26,292.72,363.46,292.72L363.46,292.72z"/>
	<rect x="345.5" y="268.5" class="st11" width="122.5" height="37.5"/>
</g>
</svg>
