<?xml version="1.0" encoding="utf-8"?>
<!-- Generator: Adobe Illustrator 23.0.3, SVG Export Plug-In . SVG Version: 6.00 Build 0)  -->
<svg version="1.1" id="图层_1" xmlns="http://www.w3.org/2000/svg" xmlns:xlink="http://www.w3.org/1999/xlink" x="0px" y="0px"
	 viewBox="0 0 612 792" style="enable-background:new 0 0 612 792;" xml:space="preserve">
<style type="text/css">
	.st0{fill:#FFFFFF;}
	.st1{fill:none;stroke:#262626;stroke-width:0.5;stroke-linecap:square;stroke-linejoin:round;stroke-miterlimit:10;}
	.st2{fill:#4C4948;}
	.st3{font-family:'Helvetica';}
	.st4{font-size:15px;}
	.st5{letter-spacing:54;}
	.st6{font-size:16.5px;}
	.st7{fill:none;stroke:#000000;stroke-width:0.5;stroke-linejoin:round;stroke-miterlimit:10;}
	.st8{fill:none;stroke:#6AB82D;stroke-width:0.5;stroke-linejoin:bevel;stroke-miterlimit:10;stroke-dasharray:4,1.5,1,1.5;}
	.st9{fill:none;stroke:#6AB82D;stroke-width:0.5;stroke-miterlimit:10;}
	.st10{font-size:13.5px;}
	.st11{fill:none;stroke:#262626;stroke-width:0.5;stroke-miterlimit:10;}
</style>
<g>
	<rect x="96" y="237" class="st0" width="420" height="315"/>
	<rect x="96" y="237" class="st0" width="420" height="315"/>
	<rect x="163" y="260.5" class="st0" width="313" height="245.5"/>
	<path class="st1" d="M163,506h313 M163,260.5h313 M163,506v-3.13 M225.6,506v-3.13 M288.2,506v-3.13 M350.8,506v-3.13 M413.4,506
		v-3.13 M476,506v-3.13 M163,260.5v3.13 M225.6,260.5v3.13 M288.2,260.5v3.13 M350.8,260.5v3.13 M413.4,260.5v3.13 M476,260.5v3.13"
		/>
	<text transform="matrix(1 0 0 1 158.75 526.5)" class="st2 st3 st4 st5">05</text>
	<text transform="matrix(1 0 0 1 279.7031 526.5)" class="st2 st3 st4">10</text>
	<text transform="matrix(1 0 0 1 342.2969 526.5)" class="st2 st3 st4">15</text>
	<text transform="matrix(1 0 0 1 404.9062 526.5)" class="st2 st3 st4">20</text>
	<text transform="matrix(1 0 0 1 467.5 526.5)" class="st2 st3 st4">25</text>
	<text transform="matrix(1 0 0 1 294.75 548)" class="st2 st3 st6">Time/s</text>
	<path class="st1" d="M163,506V260.5 M476,506V260.5 M163,506h3.13 M163,465.08h3.13 M163,424.17h3.13 M163,383.25h3.13 M163,342.33
		h3.13 M163,301.42h3.13 M163,260.5h3.13 M476,506h-3.13 M476,465.08h-3.13 M476,424.17h-3.13 M476,383.25h-3.13 M476,342.33h-3.13
		 M476,301.42h-3.13 M476,260.5h-3.13"/>
	<text transform="matrix(1 0 0 1 149.5 511.9922)" class="st2 st3 st4">0</text>
	<text transform="matrix(1 0 0 1 120 471.086)" class="st2 st3 st4">0.005</text>
	<text transform="matrix(1 0 0 1 128.5 430.1719)" class="st2 st3 st4">0.01</text>
	<text transform="matrix(1 0 0 1 120 389.25)" class="st2 st3 st4">0.015</text>
	<text transform="matrix(1 0 0 1 128.5 348.3282)" class="st2 st3 st4">0.02</text>
	<text transform="matrix(1 0 0 1 120 307.4141)" class="st2 st3 st4">0.025</text>
	<text transform="matrix(1 0 0 1 128.5 266.5)" class="st2 st3 st4">0.03</text>
	<text transform="matrix(0 -1 1 0 113 423.2422)" class="st2 st3 st6">State Z/km</text>
	<polyline class="st7" points="163,499.4 175.52,489.85 188.04,480.28 200.56,470.69 213.08,461.09 225.6,451.45 238.12,441.8 
		250.64,432.13 263.16,422.44 275.68,412.72 288.2,402.99 300.72,393.23 313.24,383.46 325.76,373.66 338.28,363.84 350.8,354 
		363.32,344.14 375.84,334.26 388.36,324.36 400.88,314.44 413.4,304.49 425.92,294.53 438.44,284.54 450.96,274.54 463.48,264.51 	
		"/>
	<polyline class="st8" points="163,499.4 169.26,494.58 175.52,489.71 181.78,484.84 188.04,479.99 194.3,475.2 200.56,470.52 
		206.82,465.97 213.08,461.57 219.34,457.34 225.6,453.29 231.86,449.43 238.12,445.76 244.38,442.28 250.64,438.98 256.9,435.85 
		263.16,432.87 269.42,430 275.68,427.22 281.94,424.49 288.2,421.75 294.46,418.97 300.72,416.07 306.98,413 313.24,409.68 
		319.5,406.69 325.76,403.71 332.02,400.72 338.28,397.74 344.54,394.76 350.8,391.78 357.06,388.8 363.32,385.82 369.58,382.84 
		375.84,379.87 382.1,376.89 388.36,373.92 394.62,370.95 400.88,367.98 407.14,365.01 413.4,362.04 419.66,359.08 425.92,356.11 
		432.18,353.15 438.44,350.18 444.7,347.22 450.96,344.27 457.22,341.31 463.48,338.35 	"/>
	<path class="st9" d="M163,496.4v6 M160,499.4h6 M169.26,491.58v6 M166.26,494.58h6 M175.52,486.71v6 M172.52,489.71h6
		 M181.78,481.83v6 M178.78,484.83h6 M188.04,476.99v6 M185.04,479.99h6 M194.3,472.2v6 M191.3,475.2h6 M200.56,467.52v6
		 M197.56,470.52h6 M206.82,462.97v6 M203.82,465.97h6 M213.08,458.57v6 M210.08,461.57h6 M219.34,454.34v6 M216.34,457.34h6
		 M225.6,450.29v6 M222.6,453.29h6 M231.86,446.43v6 M228.86,449.43h6 M238.12,442.76v6 M235.12,445.76h6 M244.38,439.28v6
		 M241.38,442.28h6 M250.64,435.98v6 M247.64,438.98h6 M256.9,432.85v6 M253.9,435.85h6 M263.16,429.87v6 M260.16,432.87h6
		 M269.42,427v6 M266.42,430h6 M275.68,424.22v6 M272.68,427.22h6 M281.94,421.48v6 M278.94,424.48h6 M288.2,418.75v6 M285.2,421.75
		h6 M294.46,415.97v6 M291.46,418.97h6 M300.72,413.07v6 M297.72,416.07h6 M306.98,410v6 M303.98,413h6 M313.24,406.68v6
		 M310.24,409.68h6 M319.5,403.69v6 M316.5,406.69h6 M325.76,400.71v6 M322.76,403.71h6 M332.02,397.72v6 M329.02,400.72h6
		 M338.28,394.74v6 M335.28,397.74h6 M344.54,391.76v6 M341.54,394.76h6 M350.8,388.78v6 M347.8,391.78h6 M357.06,385.8v6
		 M354.06,388.8h6 M363.32,382.82v6 M360.32,385.82h6 M369.58,379.84v6 M366.58,382.84h6 M375.84,376.87v6 M372.84,379.87h6
		 M382.1,373.89v6 M379.1,376.89h6 M388.36,370.92v6 M385.36,373.92h6 M394.62,367.95v6 M391.62,370.95h6 M400.88,364.98v6
		 M397.88,367.98h6 M407.14,362.01v6 M404.14,365.01h6 M413.4,359.04v6 M410.4,362.04h6 M419.66,356.08v6 M416.66,359.08h6
		 M425.92,353.11v6 M422.92,356.11h6 M432.18,350.15v6 M429.18,353.15h6 M438.44,347.18v6 M435.44,350.18h6 M444.7,344.22v6
		 M441.7,347.22h6 M450.96,341.26v6 M447.96,344.26h6 M457.22,338.31v6 M454.22,341.31h6 M463.48,335.35v6 M460.48,338.35h6"/>
	<rect x="345.5" y="268.5" class="st0" width="122.5" height="37.5"/>
	<text transform="matrix(1 0 0 1 380.6797 284.0313)" class="st3 st10">No Strategy</text>
	<line class="st7" x1="348.49" y1="278.53" x2="378.43" y2="278.53"/>
	<text transform="matrix(1 0 0 1 380.6797 301.4688)" class="st3 st10">Take Strategy</text>
	<line class="st8" x1="348.49" y1="295.97" x2="378.43" y2="295.97"/>
	<path class="st9" d="M363.46,292.97v6 M360.46,295.97h6"/>
	<rect x="345.5" y="268.5" class="st11" width="122.5" height="37.5"/>
</g>
</svg>
