<?xml version="1.0" encoding="utf-8"?>
<!-- Generator: Adobe Illustrator 23.0.3, SVG Export Plug-In . SVG Version: 6.00 Build 0)  -->
<svg version="1.1" id="图层_1" xmlns="http://www.w3.org/2000/svg" xmlns:xlink="http://www.w3.org/1999/xlink" x="0px" y="0px"
	 viewBox="0 0 612 792" style="enable-background:new 0 0 612 792;" xml:space="preserve">
<style type="text/css">
	.st0{fill:#FFFFFF;}
	.st1{fill:none;stroke:#262626;stroke-width:0.5;stroke-linecap:square;stroke-linejoin:round;stroke-miterlimit:10;}
	.st2{fill:#4C4948;}
	.st3{font-family:'Helvetica';}
	.st4{font-size:15px;}
	.st5{letter-spacing:56;}
	.st6{font-size:16.5px;}
	.st7{fill:none;stroke:#000000;stroke-width:0.5;stroke-linejoin:round;stroke-miterlimit:10;}
	.st8{fill:none;stroke:#17499D;stroke-width:0.5;stroke-linejoin:bevel;stroke-miterlimit:10;stroke-dasharray:0.5,1.5;}
	.st9{fill:none;stroke:#17499D;stroke-width:0.5;stroke-miterlimit:10;}
	.st10{font-size:13.5px;}
	.st11{fill:none;stroke:#262626;stroke-width:0.5;stroke-miterlimit:10;}
</style>
<g>
	<rect x="96" y="237" class="st0" width="420" height="315"/>
	<rect x="96" y="237" class="st0" width="420" height="315"/>
	<rect x="150.5" y="260.5" class="st0" width="325.5" height="245.5"/>
	<path class="st1" d="M150.5,506H476 M150.5,260.5H476 M150.5,506v-3.26 M215.6,506v-3.26 M280.7,506v-3.26 M345.8,506v-3.26
		 M410.9,506v-3.26 M476,506v-3.26 M150.5,260.5v3.26 M215.6,260.5v3.26 M280.7,260.5v3.26 M345.8,260.5v3.26 M410.9,260.5v3.26
		 M476,260.5v3.26"/>
	<text transform="matrix(1 0 0 1 146.25 526.5)" class="st2 st3 st4 st5">05</text>
	<text transform="matrix(1 0 0 1 272.2031 526.5)" class="st2 st3 st4">10</text>
	<text transform="matrix(1 0 0 1 337.2969 526.5)" class="st2 st3 st4">15</text>
	<text transform="matrix(1 0 0 1 402.4062 526.5)" class="st2 st3 st4">20</text>
	<text transform="matrix(1 0 0 1 467.5 526.5)" class="st2 st3 st4">25</text>
	<text transform="matrix(1 0 0 1 288.5 548)" class="st2 st3 st6">Time/s</text>
	<path class="st1" d="M150.5,506V260.5 M476,506V260.5 M150.5,506h3.26 M150.5,456.9h3.26 M150.5,407.8h3.26 M150.5,358.7h3.26
		 M150.5,309.6h3.26 M150.5,260.5h3.26 M476,506h-3.26 M476,456.9h-3.26 M476,407.8h-3.26 M476,358.7h-3.26 M476,309.6h-3.26
		 M476,260.5h-3.26"/>
	<text transform="matrix(1 0 0 1 137 511.9922)" class="st2 st3 st4">1</text>
	<text transform="matrix(1 0 0 1 124.5 462.9063)" class="st2 st3 st4">1.5</text>
	<text transform="matrix(1 0 0 1 137 413.7969)" class="st2 st3 st4">2</text>
	<text transform="matrix(1 0 0 1 124.5 364.7032)" class="st2 st3 st4">2.5</text>
	<text transform="matrix(1 0 0 1 137 315.5938)" class="st2 st3 st4">3</text>
	<text transform="matrix(1 0 0 1 124.5 266.5)" class="st2 st3 st4">3.5</text>
	<text transform="matrix(0 -1 1 0 117.5 428.2422)" class="st2 st3 st6">State Rs/km</text>
	<polyline class="st7" points="150.5,277.02 163.52,289.33 176.54,301.58 189.56,313.76 202.58,325.86 215.6,337.87 228.62,349.78 
		241.64,361.58 254.66,373.24 267.68,384.74 280.7,396.06 293.72,407.17 306.74,418.03 319.76,428.59 332.78,438.79 345.8,448.57 
		358.82,457.83 371.84,466.49 384.86,474.4 397.88,481.44 410.9,487.44 423.92,492.23 436.94,495.66 449.96,497.58 462.98,497.93 	
		"/>
	<polyline class="st8" points="150.5,277.02 157.01,283.24 163.52,289.52 170.03,295.79 176.54,301.99 183.05,308.07 189.56,313.99 
		196.07,319.69 202.58,325.16 209.09,330.37 215.6,335.3 222.11,339.94 228.62,344.29 235.13,348.36 241.64,352.16 248.15,355.73 
		254.66,359.07 261.17,362.24 267.68,365.29 274.19,368.26 280.7,371.22 287.21,374.25 293.72,377.41 300.23,380.8 306.74,384.51 
		313.25,387.76 319.76,390.99 326.27,394.2 332.78,397.39 339.29,400.57 345.8,403.72 352.31,406.86 358.82,409.97 365.33,413.06 
		371.84,416.12 378.35,419.16 384.86,422.17 391.37,425.15 397.88,428.11 404.39,431.03 410.9,433.92 417.41,436.78 423.92,439.59 
		430.43,442.38 436.94,445.12 443.45,447.81 449.96,450.47 456.47,453.07 462.98,455.63 	"/>
	<path class="st9" d="M150.5,274.02v6 M147.5,277.02h6 M148.38,274.9l4.24,4.24 M148.38,279.14l4.24-4.24 M157.01,280.24v6
		 M154.01,283.24h6 M154.89,281.12l4.24,4.24 M154.89,285.36l4.24-4.24 M163.52,286.52v6 M160.52,289.52h6 M161.4,287.4l4.24,4.24
		 M161.4,291.64l4.24-4.24 M170.03,292.79v6 M167.03,295.79h6 M167.91,293.67l4.24,4.24 M167.91,297.91l4.24-4.24 M176.54,298.99v6
		 M173.54,301.99h6 M174.42,299.87l4.24,4.24 M174.42,304.12l4.24-4.24 M183.05,305.07v6 M180.05,308.07h6 M180.93,305.95l4.24,4.24
		 M180.93,310.2l4.24-4.24 M189.56,310.99v6 M186.56,313.99h6 M187.44,311.87l4.24,4.24 M187.44,316.11l4.24-4.24 M196.07,316.69v6
		 M193.07,319.69h6 M193.95,317.57l4.24,4.24 M193.95,321.82l4.24-4.24 M202.58,322.16v6 M199.58,325.16h6 M200.46,323.04l4.24,4.24
		 M200.46,327.28l4.24-4.24 M209.09,327.37v6 M206.09,330.37h6 M206.97,328.25l4.24,4.24 M206.97,332.49l4.24-4.24 M215.6,332.3v6
		 M212.6,335.3h6 M213.48,333.17l4.24,4.24 M213.48,337.42l4.24-4.24 M222.11,336.94v6 M219.11,339.94h6 M219.99,337.81l4.24,4.24
		 M219.99,342.06l4.24-4.24 M228.62,341.29v6 M225.62,344.29h6 M226.5,342.17l4.24,4.24 M226.5,346.41l4.24-4.24 M235.13,345.36v6
		 M232.13,348.36h6 M233.01,346.24l4.24,4.24 M233.01,350.48l4.24-4.24 M241.64,349.16v6 M238.64,352.16h6 M239.52,350.04l4.24,4.24
		 M239.52,354.29l4.24-4.24 M248.15,352.73v6 M245.15,355.73h6 M246.03,353.6l4.24,4.24 M246.03,357.85l4.24-4.24 M254.66,356.07v6
		 M251.66,359.07h6 M252.54,356.95l4.24,4.24 M252.54,361.19l4.24-4.24 M261.17,359.25v6 M258.17,362.25h6 M259.05,360.12l4.24,4.24
		 M259.05,364.37l4.24-4.24 M267.68,362.29v6 M264.68,365.29h6 M265.56,363.17l4.24,4.24 M265.56,367.41l4.24-4.24 M274.19,365.26v6
		 M271.19,368.26h6 M272.07,366.14l4.24,4.24 M272.07,370.38l4.24-4.24 M280.7,368.22v6 M277.7,371.22h6 M278.58,369.1l4.24,4.24
		 M278.58,373.34l4.24-4.24 M287.21,371.25v6 M284.21,374.25h6 M285.09,372.12l4.24,4.24 M285.09,376.37l4.24-4.24 M293.72,374.41v6
		 M290.72,377.41h6 M291.6,375.29l4.24,4.24 M291.6,379.53l4.24-4.24 M300.23,377.8v6 M297.23,380.8h6 M298.11,378.68l4.24,4.24
		 M298.11,382.92l4.24-4.24 M306.74,381.51v6 M303.74,384.51h6 M304.62,382.39l4.24,4.24 M304.62,386.63l4.24-4.24 M313.25,384.76v6
		 M310.25,387.76h6 M311.13,385.64l4.24,4.24 M311.13,389.88l4.24-4.24 M319.76,387.99v6 M316.76,390.99h6 M317.64,388.87l4.24,4.24
		 M317.64,393.11l4.24-4.24 M326.27,391.2v6 M323.27,394.2h6 M324.15,392.08l4.24,4.24 M324.15,396.32l4.24-4.24 M332.78,394.39v6
		 M329.78,397.39h6 M330.66,395.27l4.24,4.24 M330.66,399.52l4.24-4.24 M339.29,397.57v6 M336.29,400.57h6 M337.17,398.45l4.24,4.24
		 M337.17,402.69l4.24-4.24 M345.8,400.72v6 M342.8,403.72h6 M343.68,401.6l4.24,4.24 M343.68,405.85l4.24-4.24 M352.31,403.86v6
		 M349.31,406.86h6 M350.19,404.74l4.24,4.24 M350.19,408.98l4.24-4.24 M358.82,406.97v6 M355.82,409.97h6 M356.7,407.85l4.24,4.24
		 M356.7,412.09l4.24-4.24 M365.33,410.06v6 M362.33,413.06h6 M363.21,410.94l4.24,4.24 M363.21,415.18l4.24-4.24 M371.84,413.12v6
		 M368.84,416.12h6 M369.72,414l4.24,4.24 M369.72,418.24l4.24-4.24 M378.35,416.16v6 M375.35,419.16h6 M376.23,417.04l4.24,4.24
		 M376.23,421.28l4.24-4.24 M384.86,419.17v6 M381.86,422.17h6 M382.74,420.05l4.24,4.24 M382.74,424.29l4.24-4.24 M391.37,422.16v6
		 M388.37,425.16h6 M389.25,423.03l4.24,4.24 M389.25,427.28l4.24-4.24 M397.88,425.11v6 M394.88,428.11h6 M395.76,425.99l4.24,4.24
		 M395.76,430.23l4.24-4.24 M404.39,428.03v6 M401.39,431.03h6 M402.27,428.91l4.24,4.24 M402.27,433.15l4.24-4.24 M410.9,430.92v6
		 M407.9,433.92h6 M408.78,431.8l4.24,4.24 M408.78,436.04l4.24-4.24 M417.41,433.78v6 M414.41,436.78h6 M415.29,434.65l4.24,4.24
		 M415.29,438.9l4.24-4.24 M423.92,436.59v6 M420.92,439.59h6 M421.8,437.47l4.24,4.24 M421.8,441.72l4.24-4.24 M430.43,439.38v6
		 M427.43,442.38h6 M428.31,440.25l4.24,4.24 M428.31,444.5l4.24-4.24 M436.94,442.12v6 M433.94,445.12h6 M434.82,442.99l4.24,4.24
		 M434.82,447.24l4.24-4.24 M443.45,444.81v6 M440.45,447.81h6 M441.33,445.69l4.24,4.24 M441.33,449.93l4.24-4.24 M449.96,447.47v6
		 M446.96,450.47h6 M447.84,448.35l4.24,4.24 M447.84,452.59l4.24-4.24 M456.47,450.07v6 M453.47,453.07h6 M454.35,450.95l4.24,4.24
		 M454.35,455.2l4.24-4.24 M462.98,452.63v6 M459.98,455.63h6 M460.86,453.51l4.24,4.24 M460.86,457.75l4.24-4.24"/>
	<rect x="345.5" y="268.5" class="st0" width="122.5" height="37.5"/>
	<text transform="matrix(1 0 0 1 380.6797 284.0313)" class="st3 st10">No Strategy</text>
	<line class="st7" x1="348.49" y1="278.53" x2="378.43" y2="278.53"/>
	<text transform="matrix(1 0 0 1 380.6797 301.4688)" class="st3 st10">Take Strategy</text>
	<line class="st8" x1="348.49" y1="295.97" x2="378.43" y2="295.97"/>
	<path class="st9" d="M363.46,292.97v6 M360.46,295.97h6 M361.34,293.85l4.24,4.24 M361.34,298.09l4.24-4.24"/>
	<rect x="345.5" y="268.5" class="st11" width="122.5" height="37.5"/>
</g>
</svg>
